<?xml version="1.0" encoding="UTF-8"?>
<svg width="100px" height="100px" viewBox="0 0 100 100" version="1.1" xmlns="http://www.w3.org/2000/svg" xmlns:xlink="http://www.w3.org/1999/xlink">
    <!-- Generator: Sketch 54.1 (76490) - https://sketchapp.com -->
    <title>circle-pause copy</title>
    <desc>Created with Sketch.</desc>
    <g id="Page-1" stroke="none" stroke-width="1" fill="none" fill-rule="evenodd">
        <g id="circle-pause-copy" fill="#FF0073" fill-rule="nonzero">
            <path d="M50,100 C77.6142375,100 100,77.6142375 100,50 C100,22.3857625 77.6142375,1.69088438e-15 50,0 C22.3857625,-1.69088438e-15 3.38176876e-15,22.3857625 0,50 C-3.38176876e-15,77.6142375 22.3857625,100 50,100 Z M43.75,37.5 L43.75,62.5 C43.75,65.9570312 40.9570312,68.75 37.5,68.75 C34.0429688,68.75 31.25,65.9570312 31.25,62.5 L31.25,37.5 C31.25,34.0429688 34.0429688,31.25 37.5,31.25 C40.9570312,31.25 43.75,34.0429688 43.75,37.5 Z M68.75,37.5 L68.75,62.5 C68.75,65.9570312 65.9570312,68.75 62.5,68.75 C59.0429688,68.75 56.25,65.9570312 56.25,62.5 L56.25,37.5 C56.25,34.0429688 59.0429688,31.25 62.5,31.25 C65.9570312,31.25 68.75,34.0429688 68.75,37.5 Z" id="Shape"></path>
        </g>
    </g>
</svg>