<?xml version="1.0" encoding="UTF-8"?>
<svg width="100px" height="100px" viewBox="0 0 100 100" version="1.1" xmlns="http://www.w3.org/2000/svg" xmlns:xlink="http://www.w3.org/1999/xlink">
    <!-- Generator: Sketch 54.1 (76490) - https://sketchapp.com -->
    <title>circle-play copy</title>
    <desc>Created with Sketch.</desc>
    <g id="Page-1" stroke="none" stroke-width="1" fill="none" fill-rule="evenodd">
        <g id="circle-play-copy" fill="#FF0073" fill-rule="nonzero">
            <path d="M0,50 C-3.38176876e-15,22.3857625 22.3857625,5.07265313e-15 50,0 C77.6142375,-5.07265313e-15 100,22.3857625 100,50 C100,77.6142375 77.6142375,100 50,100 C22.3857625,100 3.38176876e-15,77.6142375 0,50 Z M36.7773438,28.7304687 C35.2929688,29.5507812 34.375,31.1328125 34.375,32.8125 L34.375,67.1875 C34.375,68.8867188 35.2929688,70.4492188 36.7773438,71.2695312 C38.2617188,72.0898437 40.0585938,72.0703125 41.5234375,71.171875 L69.6484375,53.984375 C71.0351562,53.125 71.8945312,51.6210937 71.8945312,49.9804687 C71.8945312,48.3398438 71.0351562,46.8359375 69.6484375,45.9765625 L41.5234375,28.7890625 C40.078125,27.9101562 38.2617188,27.8710937 36.7773438,28.6914062 L36.7773438,28.7304687 Z" id="Shape"></path>
        </g>
    </g>
</svg>