<?xml version="1.0" encoding="UTF-8"?>
<svg width="100px" height="100px" viewBox="0 0 100 100" version="1.1" xmlns="http://www.w3.org/2000/svg" xmlns:xlink="http://www.w3.org/1999/xlink">
    <!-- Generator: Sketch 54.1 (76490) - https://sketchapp.com -->
    <title>download copy</title>
    <desc>Created with Sketch.</desc>
    <g id="Page-1" stroke="none" stroke-width="1" fill="none" fill-rule="evenodd">
        <g id="download-copy" fill="#FFFFFF" fill-rule="nonzero">
            <path d="M42.1875,0 L57.8125,0 C60.4101562,0 62.5,2.08984375 62.5,4.6875 L62.5,37.5 L79.6289062,37.5 C83.1054688,37.5 84.84375,41.6992188 82.3828125,44.1601562 L52.6757812,73.8867188 C51.2109375,75.3515625 48.8085938,75.3515625 47.34375,73.8867188 L17.5976562,44.1601562 C15.1367188,41.6992188 16.875,37.5 20.3515625,37.5 L37.5,37.5 L37.5,4.6875 C37.5,2.08984375 39.5898438,0 42.1875,0 Z M100,73.4375 L100,95.3125 C100,97.9101562 97.9101562,100 95.3125,100 L4.6875,100 C2.08984375,100 0,97.9101562 0,95.3125 L0,73.4375 C0,70.8398438 2.08984375,68.75 4.6875,68.75 L33.3398438,68.75 L42.9101562,78.3203125 C46.8359375,82.2460938 53.1640625,82.2460938 57.0898437,78.3203125 L66.6601562,68.75 L95.3125,68.75 C97.9101562,68.75 100,70.8398438 100,73.4375 Z M75.78125,90.625 C75.78125,88.4765625 74.0234375,86.71875 71.875,86.71875 C69.7265625,86.71875 67.96875,88.4765625 67.96875,90.625 C67.96875,92.7734375 69.7265625,94.53125 71.875,94.53125 C74.0234375,94.53125 75.78125,92.7734375 75.78125,90.625 Z M88.28125,90.625 C88.28125,88.4765625 86.5234375,86.71875 84.375,86.71875 C82.2265625,86.71875 80.46875,88.4765625 80.46875,90.625 C80.46875,92.7734375 82.2265625,94.53125 84.375,94.53125 C86.5234375,94.53125 88.28125,92.7734375 88.28125,90.625 Z" id="Shape"></path>
        </g>
    </g>
</svg>