<?xml version="1.0" encoding="UTF-8"?>
<svg width="100px" height="100px" viewBox="0 0 100 100" version="1.1" xmlns="http://www.w3.org/2000/svg" xmlns:xlink="http://www.w3.org/1999/xlink">
    <!-- Generator: Sketch 54.1 (76490) - https://sketchapp.com -->
    <title>circle-down copy</title>
    <desc>Created with Sketch.</desc>
    <g id="Page-1" stroke="none" stroke-width="1" fill="none" fill-rule="evenodd">
        <g id="circle-down-copy" fill="#FF0072" fill-rule="nonzero">
            <path d="M50,0 C22.3857625,-1.69088438e-15 3.38176876e-15,22.3857625 0,50 C-3.38176876e-15,77.6142375 22.3857625,100 50,100 C77.6142375,100 100,77.6142375 100,50 C100,22.3857625 77.6142375,1.69088438e-15 50,0 Z M47.7929688,77.2070312 L25.9179687,55.3320313 C25.0195312,54.4335938 24.765625,53.0859375 25.234375,51.9335938 C25.703125,50.78125 26.8554688,50 28.125,50 L40.625,50 L40.625,31.25 C40.625,27.7929688 43.4179688,25 46.875,25 L53.125,25 C56.5820312,25 59.375,27.7929688 59.375,31.25 L59.375,50 L71.875,50 C73.1445312,50 74.2773438,50.7617188 74.765625,51.9335938 C75.2539062,53.1054688 74.9804688,54.453125 74.0820312,55.3320313 L52.2070312,77.2070312 C50.9960938,78.4179688 49.0039062,78.4179688 47.7929688,77.2070312 Z" id="Shape"></path>
        </g>
    </g>
</svg>