<?xml version="1.0" encoding="UTF-8"?>
<svg width="225px" height="80px" viewBox="0 0 225 80" version="1.1" xmlns="http://www.w3.org/2000/svg" xmlns:xlink="http://www.w3.org/1999/xlink">
    <!-- Generator: Sketch 54.1 (76490) - https://sketchapp.com -->
    <title>Tryitout!</title>
    <desc>Created with Sketch.</desc>
    <g id="Page-1" stroke="none" stroke-width="1" fill="none" fill-rule="evenodd">
        <path d="M30.35,16.15 C31.083337,16.1833335 31.45,16.4166645 31.45,16.85 C31.45,17.3500025 31.0583373,17.9083303 30.275,18.525 C29.4916628,19.1416698 28.800003,19.45 28.2,19.45 C25.333319,19.45 22.1500175,19.5333325 18.65,19.7 C15.8166525,31.0667235 13.8500055,41.5999515 12.75,51.3 C13.216669,51.3333335 13.6083318,51.4416657 13.925,51.625 C14.2416683,51.8083343 14.4,52.0499985 14.4,52.35 C14.4,52.750002 14.100003,53.183331 13.5,53.65 L11.55,55.15 C11.3166655,55.3833345 10.8750033,55.599999 10.225,55.8 C9.57499675,56.000001 8.9666695,56.1 8.4,56.1 C7.3666615,56.1 6.8999995,55.6833375 7,54.85 C8.1666725,43.8832785 10.2999845,32.3500605 13.4,20.25 L13.35,20.05 C9.549981,20.383335 6.0000165,20.749998 2.7,21.15 C2.1999975,21.216667 1.8000015,21.1416678 1.5,20.925 C1.1999985,20.7083323 1.0666665,20.366669 1.1,19.9 C1.1333335,19.433331 1.42499725,19.0500015 1.975,18.75 C2.52500275,18.4499985 3.1166635,18.2166675 3.75,18.05 C6.950016,17.116662 10.516647,16.483335 14.45,16.15 L14.75,15.3 C14.883334,14.833331 15.349996,14.4250017 16.15,14.075 C16.950004,13.7249982 17.7333295,13.55 18.5,13.55 C19.0000025,13.55 19.3916653,13.649999 19.675,13.85 C19.9583348,14.050001 20.0500005,14.3333315 19.95,14.7 L19.65,15.85 L22,15.8 C24.4333455,15.8 27.216651,15.9166655 30.35,16.15 Z M37.9,24 C38.8666715,23.599998 39.749996,23.4 40.55,23.4 C41.416671,23.4 42.116664,23.6249977 42.65,24.075 C43.183336,24.5250023 43.45,25.249995 43.45,26.25 C43.45,27.2166715 43.3000015,28.266661 43,29.4 C42.6999985,30.533339 42.283336,31.866659 41.75,33.4 L41.05,35.5 C40.849999,36.1333365 40.3333375,36.6666645 39.5,37.1 C38.6666625,37.5333355 37.8666705,37.75 37.1,37.75 C36.5999975,37.75 36.2250012,37.6416678 35.975,37.425 C35.7249987,37.2083323 35.666666,36.8833355 35.8,36.45 C36.400003,34.583324 36.999997,32.516678 37.6,30.25 C37.733334,29.2166615 37.833333,28.533335 37.9,28.2 L37.7,28.4 C35.1333205,30.600011 32.783344,33.36665 30.65,36.7 C29.6833285,42.0000265 29.0833345,47.31664 28.85,52.65 C28.8166665,53.2833365 28.3916707,53.8416643 27.575,54.325 C26.7583292,54.8083357 25.916671,55.05 25.05,55.05 C24.5499975,55.05 24.133335,54.9333345 23.8,54.7 C23.466665,54.4666655 23.3166665,54.116669 23.35,53.65 C23.616668,48.849976 24.1333295,44.183356 24.9,39.65 C24.566665,39.4166655 24.4,39.1500015 24.4,38.85 C24.4,38.649999 24.466666,38.4333345 24.6,38.2 L25.35,36.95 C26.083337,33.1166475 26.983328,29.266686 28.05,25.4 C28.2166675,24.799997 28.7416622,24.2750023 29.625,23.825 C30.5083378,23.3749977 31.349996,23.15 32.15,23.15 C32.6500025,23.15 33.033332,23.249999 33.3,23.45 C33.566668,23.650001 33.633334,23.949998 33.5,24.35 C32.966664,26.216676 32.633334,27.449997 32.5,28.05 C34.50001,26.04999 36.299992,24.7000035 37.9,24 Z M48.45,75.2 C48.3499995,75.3000005 48.3,75.383333 48.3,75.45 C48.2666665,75.3499995 48.316666,75.266667 48.45,75.2 Z M60.8,25.65 C60.8,25.0166635 61.1833295,24.466669 61.95,24 C62.7166705,23.533331 63.5166625,23.3 64.35,23.3 C64.8500025,23.3 65.2583317,23.4083323 65.575,23.625 C65.8916682,23.8416677 66.05,24.183331 66.05,24.65 C66.0833335,26.3500085 65.9750012,28.0083252 65.725,29.625 C65.4749987,31.2416748 65.0666695,33.483319 64.5,36.35 C64.233332,37.550006 64.0500005,38.4333305 63.95,39 C62.7833275,45.266698 61.3500085,51.699967 59.65,58.3 C58.7499955,61.8666845 57.9416702,64.7916553 57.225,67.075 C56.5083298,69.3583448 55.616672,71.5499895 54.55,73.65 C53.88333,74.9500065 53.016672,76.1083282 51.95,77.125 C50.883328,78.1416718 49.7666725,78.65 48.6,78.65 C47.799996,78.65 47.0166705,78.3666695 46.25,77.8 C44.3499905,76.333326 43.4,73.1500245 43.4,68.25 C43.4,66.91666 43.4833325,65.0000125 43.65,62.5 C43.6833335,61.8666635 44.099996,61.316669 44.9,60.85 C45.700004,60.383331 46.5166625,60.15 47.35,60.15 C48.483339,60.15 49.0333335,60.583329 49,61.45 C48.933333,62.983341 48.9,64.149996 48.9,64.95 C48.9,66.7833425 48.999999,68.566658 49.2,70.3 C49.2333335,70.500001 49.2916663,70.833331 49.375,71.3 C49.4583337,71.766669 49.566666,72.1833315 49.7,72.55 C49.833334,72.1833315 50.0166655,71.800002 50.25,71.4 C50.9500035,69.866659 51.399999,68.7833365 51.6,68.15 C52.3000035,66.1166565 53.1666615,63.166686 54.2,59.3 C55.133338,55.7333155 55.9166635,52.5333475 56.55,49.7 C54.7166575,51.9333445 52.733344,53.316664 50.6,53.85 C49.5666615,54.0833345 48.7666695,54.2 48.2,54.2 C44.466648,54.2 42.6,51.3833615 42.6,45.75 C42.6,41.483312 43.699989,35.68337 45.9,28.35 C46.0666675,27.749997 46.5333295,27.2083358 47.3,26.725 C48.0666705,26.2416642 48.7999965,26 49.5,26 C50.433338,26 50.9833325,26.433329 51.15,27.3 C51.216667,27.6666685 51.1000015,28.2333295 50.8,29 C50.4999985,29.7666705 50.316667,30.2666655 50.25,30.5 C49.716664,32.50001 49.350001,33.999995 49.15,35 L48.9,36.05 C48.499998,37.7500085 48.166668,39.299993 47.9,40.7 C47.633332,42.100007 47.5,43.4499935 47.5,44.75 C47.5,47.1166785 48.0166615,48.766662 49.05,49.7 C49.316668,49.966668 49.6333315,50.1 50,50.1 C51.066672,50.1 52.1499945,49.1416762 53.25,47.225 C54.3500055,45.3083237 55.466661,43.083346 56.6,40.55 C57.733339,37.949987 58.6249967,35.7416758 59.275,33.925 C59.9250032,32.1083243 60.3666655,30.2833425 60.6,28.45 C60.666667,27.78333 60.733333,26.850006 60.8,25.65 Z M91.5,16.25 C91.6666675,16.3500005 91.816666,16.4916657 91.95,16.675 C92.083334,16.8583342 92.15,17.0333325 92.15,17.2 L92.15,17.3 C91.7833315,18.7333405 91.500001,19.7333305 91.3,20.3 C91.0666655,20.8666695 90.5750038,21.3083317 89.825,21.625 C89.0749962,21.9416683 88.433336,22.1 87.9,22.1 C87.566665,22.1 87.266668,22.033334 87,21.9 C86.8333325,21.833333 86.683334,21.7250007 86.55,21.575 C86.416666,21.4249992 86.35,21.2666675 86.35,21.1 L86.35,20.95 C86.483334,20.4499975 86.7666645,19.4166745 87.2,17.85 C87.3000005,17.449998 87.716663,17.050002 88.45,16.65 C89.0166695,16.2833315 89.666663,16.1 90.4,16.1 C90.7666685,16.1 91.1333315,16.1499995 91.5,16.25 Z M89.55,36.3 C89.349999,37.63334 88.9750027,40.0416492 88.425,43.525 C87.8749972,47.0083507 87.4166685,50.1666525 87.05,53 C86.9499995,53.6333365 86.5083372,54.1749977 85.725,54.625 C84.9416627,55.0750023 84.150004,55.3 83.35,55.3 C82.816664,55.3 82.4083347,55.1916678 82.125,54.975 C81.8416652,54.7583322 81.733333,54.4333355 81.8,54 C82.3666695,50.66665 82.9749968,46.8583547 83.625,42.575 C84.2750032,38.2916452 84.733332,35.2333425 85,33.4 L86.05,26.55 C86.1500005,25.949997 86.6083292,25.4333355 87.425,25 C88.2416708,24.5666645 89.0333295,24.35 89.8,24.35 C90.266669,24.35 90.633332,24.449999 90.9,24.65 C91.166668,24.850001 91.266667,25.1333315 91.2,25.5 L89.55,36.3 Z M110.95,44.05 C111.183335,43.8166655 111.549997,43.633334 112.05,43.5 C112.550003,43.366666 113.049997,43.3 113.55,43.3 C114.783339,43.3 115.4,43.6166635 115.4,44.25 C115.4,44.5500015 115.233335,44.8833315 114.9,45.25 C114.499998,45.716669 114.133335,46.1583313 113.8,46.575 L112.9,47.7 C111.433326,49.6000095 110.116672,51.1083278 108.95,52.225 C107.783327,53.3416722 106.416674,54.1499975 104.85,54.65 C104.116663,54.8833345 103.333338,55 102.5,55 C101.099993,55 99.9083382,54.600004 98.925,53.8 C97.9416618,52.999996 97.3666675,51.833341 97.2,50.3 C97.133333,49.8666645 97.1,49.2000045 97.1,48.3 C97.1,46.566658 97.299998,44.800009 97.7,43 C98.100002,41.199991 98.6833295,38.9500135 99.45,36.25 L100.05,34.1 L98.15,34.3 C97.216662,34.366667 95.950008,34.499999 94.35,34.7 C93.5833295,34.8000005 93.000002,34.716668 92.6,34.45 C92.199998,34.183332 92,33.8333355 92,33.4 C92,32.8999975 92.2416643,32.4083357 92.725,31.925 C93.2083358,31.4416643 93.8333295,31.166667 94.6,31.1 L101.05,30.35 C102.516674,24.949973 104.166657,19.650026 106,14.45 C106.166668,13.983331 106.624996,13.5750018 107.375,13.225 C108.125004,12.8749982 108.849997,12.7 109.55,12.7 C109.983336,12.7 110.341665,12.7833325 110.625,12.95 C110.908335,13.1166675 111.05,13.366665 111.05,13.7 C111.05,13.8000005 111.016667,13.983332 110.95,14.25 C109.016657,19.6833605 107.400007,24.866642 106.1,29.8 C108.433345,29.5666655 109.983329,29.45 110.75,29.45 C111.716671,29.45 112.2,29.7333305 112.2,30.3 C112.2,30.766669 111.916669,31.2749973 111.35,31.825 C110.78333,32.3750028 110.200003,32.716666 109.6,32.85 C107.59999,33.183335 106.100005,33.416666 105.1,33.55 C104.53333,35.816678 104.033335,38.0333225 103.6,40.2 C103.533333,40.466668 103.300002,41.4416582 102.9,43.125 C102.499998,44.8083418 102.3,46.383326 102.3,47.85 C102.3,49.7500095 102.799995,50.7833325 103.8,50.95 C104.433336,51.0500005 105.158329,50.6916708 105.975,49.875 C106.791671,49.0583292 107.849993,47.8333415 109.15,46.2 C109.950004,45.1666615 110.549998,44.450002 110.95,44.05 Z M149.2,37.7 C149.2,34.166649 147.133354,31.3833435 143,29.35 C141.966662,30.216671 140.933338,31.3666595 139.9,32.8 C138.633327,34.6333425 137.583338,36.683322 136.75,38.95 C136.416665,39.8500045 136.100001,41.0749922 135.8,42.625 C135.499998,44.1750078 135.35,45.61666 135.35,46.95 C135.35,48.3166735 135.541665,49.4083293 135.925,50.225 C136.308335,51.0416707 136.933329,51.45 137.8,51.45 C138.500003,51.45 139.316662,51.1666695 140.25,50.6 C142.81668,49.0999925 144.949992,47.2333445 146.65,45 C148.350009,42.7666555 149.2,40.3333465 149.2,37.7 Z M150.6,28.65 C151.800006,29.783339 152.724997,31.0666595 153.375,32.5 C154.025003,33.9333405 154.35,35.449992 154.35,37.05 C154.35,39.3500115 153.68334,41.6833215 152.35,44.05 C151.449996,45.650008 150.133342,47.3333245 148.4,49.1 C146.666658,50.8666755 144.741677,52.3583273 142.625,53.575 C140.508323,54.7916727 138.483343,55.4 136.55,55.4 C135.349994,55.4 134.216672,55.133336 133.15,54.6 C130.883322,53.3666605 129.75,51.150016 129.75,47.95 C129.75,45.6499885 130.266661,43.1250137 131.3,40.375 C132.333339,37.6249863 133.433327,35.3000095 134.6,33.4 C137.433347,28.8999775 140.416651,26.0666725 143.55,24.9 C144.416671,24.566665 145.349995,24.4 146.35,24.4 C147.516672,24.4 148.499996,24.6916637 149.3,25.275 C150.100004,25.8583362 150.566666,26.7666605 150.7,28 L150.7,28.2 C150.7,28.3000005 150.666667,28.449999 150.6,28.65 Z M176.35,27.2 C176.583335,26.799998 177.158329,26.3750022 178.075,25.925 C178.991671,25.4749977 179.799996,25.25 180.5,25.25 C181.500005,25.25 181.933334,25.716662 181.8,26.65 C181.8,26.7500005 181.783334,26.899999 181.75,27.1 C181.716666,27.300001 181.683334,27.4499995 181.65,27.55 L181.65,27.65 C181.316665,29.8833445 180.941669,32.5583178 180.525,35.675 C180.108331,38.7916823 179.783334,41.2333245 179.55,43 L178.25,52.6 C178.149999,53.26667 177.675004,53.833331 176.825,54.3 C175.974996,54.766669 175.116671,55 174.25,55 C173.716664,55 173.291668,54.8833345 172.975,54.65 C172.658332,54.4166655 172.533333,54.0833355 172.6,53.65 C172.966669,50.783319 173.549996,46.483362 174.35,40.75 L173.85,41.6 C172.983329,43.066674 172.333335,44.13333 171.9,44.8 C170.399992,47.133345 168.808342,49.099992 167.125,50.7 C165.441658,52.300008 163.516677,53.366664 161.35,53.9 C160.516663,54.100001 159.76667,54.2 159.1,54.2 C155.966651,54.2 154.4,52.066688 154.4,47.8 C154.4,45.79999 154.716663,43.5250127 155.35,40.975 C155.983336,38.4249873 156.708329,36.0333445 157.525,33.8 C158.341671,31.5666555 159.049997,29.8666725 159.65,28.7 C159.883334,28.233331 160.408329,27.8250018 161.225,27.475 C162.041671,27.1249982 162.83333,26.95 163.6,26.95 C164.066669,26.95 164.441665,27.0333325 164.725,27.2 C165.008335,27.3666675 165.15,27.5999985 165.15,27.9 C165.15,28.033334 165.100001,28.233332 165,28.5 C162.766656,33.4000245 161.31667,37.84998 160.65,41.85 L160.4,43.2 C160.133332,44.600007 160,45.666663 160,46.4 C160,46.7666685 160.016667,47.0333325 160.05,47.2 C160.450002,48.9000085 161.099996,49.7000005 162,49.6 C162.366668,49.5666665 162.808331,49.250003 163.325,48.65 C163.841669,48.049997 164.166666,47.683334 164.3,47.55 C165.933342,45.6499905 167.41666,43.5750112 168.75,41.325 C170.08334,39.0749887 171.633325,36.250017 173.4,32.85 C174.300004,31.0166575 175.283328,29.133343 176.35,27.2 Z M200.7,44.05 C200.933335,43.8166655 201.299998,43.633334 201.8,43.5 C202.300003,43.366666 202.799998,43.3 203.3,43.3 C204.533339,43.3 205.15,43.6166635 205.15,44.25 C205.15,44.5500015 204.983335,44.8833315 204.65,45.25 C204.249998,45.716669 203.883335,46.1583313 203.55,46.575 L202.65,47.7 C201.183326,49.6000095 199.866672,51.1083278 198.7,52.225 C197.533327,53.3416722 196.166675,54.1499975 194.6,54.65 C193.866663,54.8833345 193.083338,55 192.25,55 C190.849993,55 189.658338,54.600004 188.675,53.8 C187.691662,52.999996 187.116667,51.833341 186.95,50.3 C186.883333,49.8666645 186.85,49.2000045 186.85,48.3 C186.85,46.566658 187.049998,44.800009 187.45,43 C187.850002,41.199991 188.43333,38.9500135 189.2,36.25 L189.8,34.1 L187.9,34.3 C186.966662,34.366667 185.700008,34.499999 184.1,34.7 C183.33333,34.8000005 182.750002,34.716668 182.35,34.45 C181.949998,34.183332 181.75,33.8333355 181.75,33.4 C181.75,32.8999975 181.991664,32.4083357 182.475,31.925 C182.958336,31.4416643 183.58333,31.166667 184.35,31.1 L190.8,30.35 C192.266674,24.949973 193.916657,19.650026 195.75,14.45 C195.916668,13.983331 196.374996,13.5750018 197.125,13.225 C197.875004,12.8749982 198.599997,12.7 199.3,12.7 C199.733336,12.7 200.091665,12.7833325 200.375,12.95 C200.658335,13.1166675 200.8,13.366665 200.8,13.7 C200.8,13.8000005 200.766667,13.983332 200.7,14.25 C198.766657,19.6833605 197.150007,24.866642 195.85,29.8 C198.183345,29.5666655 199.733329,29.45 200.5,29.45 C201.466671,29.45 201.95,29.7333305 201.95,30.3 C201.95,30.766669 201.666669,31.2749973 201.1,31.825 C200.53333,32.3750028 199.950003,32.716666 199.35,32.85 C197.34999,33.183335 195.850005,33.416666 194.85,33.55 C194.28333,35.816678 193.783335,38.0333225 193.35,40.2 C193.283333,40.466668 193.050002,41.4416582 192.65,43.125 C192.249998,44.8083418 192.05,46.383326 192.05,47.85 C192.05,49.7500095 192.549995,50.7833325 193.55,50.95 C194.183337,51.0500005 194.908329,50.6916708 195.725,49.875 C196.541671,49.0583292 197.599993,47.8333415 198.9,46.2 C199.700004,45.1666615 200.299998,44.450002 200.7,44.05 Z M216,40.45 C215.933333,40.9500025 215.575003,41.3499985 214.925,41.65 C214.274997,41.9500015 213.56667,42.1 212.8,42.1 C212.13333,42.1 211.591669,41.9750012 211.175,41.725 C210.758331,41.4749987 210.583333,41.083336 210.65,40.55 C211.116669,37.1166495 212.308324,30.800046 214.225,21.6 C216.141676,12.399954 217.549996,6.2833485 218.45,3.25 C218.583334,2.783331 218.974997,2.4000015 219.625,2.1 C220.275003,1.7999985 220.983329,1.65 221.75,1.65 C222.41667,1.65 222.949998,1.77499875 223.35,2.025 C223.750002,2.27500125 223.883334,2.633331 223.75,3.1 C222.883329,6.100015 221.50001,12.199954 219.6,21.4 C217.69999,30.600046 216.500002,36.9499825 216,40.45 Z M209.75,56.4 C208.816662,56.199999 208.216668,55.866669 207.95,55.4 C207.783333,55.133332 207.7,54.8833345 207.7,54.65 C207.7,54.449999 207.799999,54.2000015 208,53.9 C208.400002,53.299997 209.016663,52.866668 209.85,52.6 C210.116668,52.466666 210.316666,52.3833335 210.45,52.35 L210.65,52.05 C210.983335,51.649998 211.549996,51.283335 212.35,50.95 C212.950003,50.749999 213.433331,50.65 213.8,50.65 C214.600004,50.65 215.133332,50.9333305 215.4,51.5 C215.566668,51.7333345 215.65,52.049998 215.65,52.45 C215.65,53.050003 215.416669,53.649997 214.95,54.25 C214.483331,54.850003 213.950003,55.316665 213.35,55.65 C212.383329,56.183336 211.416672,56.45 210.45,56.45 C210.149999,56.45 209.916668,56.4333335 209.75,56.4 Z" id="Tryitout!" stroke="#222222" stroke-width="1.5" fill="#222222" fill-rule="nonzero"></path>
    </g>
</svg>