<?xml version="1.0" encoding="UTF-8"?>
<svg width="215px" height="38px" viewBox="0 0 215 38" version="1.1" xmlns="http://www.w3.org/2000/svg" xmlns:xlink="http://www.w3.org/1999/xlink">
    <!-- Generator: Sketch 54.1 (76490) - https://sketchapp.com -->
    <title>Group 36</title>
    <desc>Created with Sketch.</desc>
    <g id="Page-1" stroke="none" stroke-width="1" fill="none" fill-rule="evenodd">
        <g id="Group-36" transform="translate(0.000000, -12.000000)" fill="#222222" fill-rule="nonzero">
            <path d="M21.1815,32.6505 C22.8825085,34.1355074 23.733,35.6609922 23.733,37.227 C23.733,38.2530051 23.3820035,39.2789949 22.68,40.305 C20.1959876,43.8690178 17.2800167,46.0694958 13.932,46.9065 C13.0679957,47.1225011 12.0960054,47.2305 11.016,47.2305 C8.47798731,47.2305 6.04801161,46.5960063 3.726,45.327 C2.61899447,44.732997 1.84950216,43.9635047 1.4175,43.0185 C0.98549784,42.0734953 0.7695,40.9530065 0.7695,39.657 C0.7695,38.7389954 0.87749892,37.4160086 1.0935,35.688 C1.17450041,35.2289977 1.55249663,34.9995 2.2275,34.9995 C2.98350378,34.9995 3.75299609,35.2424976 4.536,35.7285 C5.31900392,36.2145024 5.67000041,36.754497 5.589,37.3485 C5.56199986,37.5645011 5.49450054,38.0437463 5.3865,38.78625 C5.27849946,39.5287537 5.2245,40.2104969 5.2245,40.8315 C5.2245,42.235507 5.56199662,43.1804976 6.237,43.6665 C6.91200338,44.1525024 7.7894946,44.3955 8.8695,44.3955 C9.9495054,44.3955 11.0699942,44.1660023 12.231,43.707 C13.1220045,43.3559982 14.1142445,42.775504 15.20775,41.9655 C16.3012555,41.155496 17.2327462,40.2375051 18.00225,39.2115 C18.7717538,38.1854949 19.1565,37.1865049 19.1565,36.2145 C19.1565,35.4314961 18.8865027,34.7160032 18.3465,34.068 C17.8064973,33.4469969 17.0437549,32.8530028 16.05825,32.286 C15.0727451,31.7189972 13.7700081,31.0575038 12.15,30.3015 C10.15199,29.3564953 8.55225601,28.5262536 7.35075,27.81075 C6.14924399,27.0952464 5.11650432,26.2447549 4.2525,25.25925 C3.38849568,24.2737451 2.9565,23.1600062 2.9565,21.918 C2.9565,21.3509972 3.02399933,20.8515022 3.159,20.4195 C3.80700324,17.9894879 5.40673724,16.2412553 7.95825,15.17475 C10.5097628,14.1082447 13.2704852,13.575 16.2405,13.575 C17.5365065,13.575 18.6704951,13.6559992 19.6425,13.818 C20.6145049,13.9800008 21.4244968,14.3309973 22.0725,14.871 C22.8015036,15.465003 23.166,16.3019946 23.166,17.382 C23.166,18.0300032 23.064751,18.6712468 22.86225,19.30575 C22.659749,19.9402532 22.356002,20.7974946 21.951,21.8775 C21.6539985,22.6065036 21.4785003,23.0519992 21.4245,23.214 C21.2624992,23.6730023 20.8170036,23.9025 20.088,23.9025 C19.3589964,23.9025 18.6435035,23.700002 17.9415,23.295 C17.2394965,22.889998 16.8885,22.4310026 16.8885,21.918 C16.8885,21.7829993 16.9019999,21.6750004 16.929,21.594 L17.5365,19.8525 C17.8065014,19.0964962 17.9954995,18.5295019 18.1035,18.1515 L18.387,16.4505 C14.984983,16.3964997 12.2715101,17.0849928 10.2465,18.516 C9.43649595,19.0560027 8.80875223,19.6837464 8.36325,20.39925 C7.91774777,21.1147536 7.695,21.8369964 7.695,22.566 C7.695,23.8350063 8.32949366,24.9284954 9.5985,25.8465 C10.5165046,26.4945032 11.5357444,27.1019972 12.65625,27.669 C13.7767556,28.2360028 14.4584988,28.5869993 14.7015,28.722 C16.2675078,29.5050039 17.5297452,30.1664973 18.48825,30.7065 C19.4467548,31.2465027 20.3444958,31.8944962 21.1815,32.6505 Z M41.9985,21.594 C42.4305022,21.7290007 42.6330001,22.0124978 42.606,22.4445 C41.8499962,29.6805362 40.7430073,37.2269607 39.285,45.084 C39.1769995,45.5970026 38.7990032,46.0289982 38.151,46.38 C37.5029968,46.7310018 36.8550032,46.9065 36.207,46.9065 C35.801998,46.9065 35.4780012,46.8187509 35.235,46.64325 C34.9919988,46.4677491 34.9109996,46.2180016 34.992,45.894 C35.6400032,43.085986 36.1799978,40.2105147 36.612,37.2675 C37.0440022,34.3244853 37.462498,30.949519 37.8675,27.1425 C35.6534889,29.1945103 33.4395111,31.4354878 31.2255,33.8655 L28.998,46.1775 C28.8899995,46.6905026 28.4985034,47.1359981 27.8235,47.514 C27.1484966,47.8920019 26.4735034,48.081 25.7985,48.081 C25.393498,48.081 25.0830011,47.9932509 24.867,47.81775 C24.6509989,47.6422491 24.5699997,47.3790018 24.624,47.028 L26.6085,35.8905 C26.2844984,35.8094996 26.1225,35.6205015 26.1225,35.3235 C26.1225,35.1074989 26.2439988,34.8375016 26.487,34.5135 L26.973,33.8655 L30.618,14.061 C30.6990004,13.5749976 31.0769966,13.1565018 31.752,12.8055 C32.4270034,12.4544982 33.0884968,12.279 33.7365,12.279 C34.1145019,12.279 34.4114989,12.3599992 34.6275,12.522 C34.8435011,12.6840008 34.9245003,12.9134985 34.8705,13.2105 L32.2785,27.8715 C34.27651,25.87349 36.5039877,23.970009 38.961,22.161 C39.7440039,21.6209973 40.4729966,21.351 41.148,21.351 C41.4720016,21.351 41.7554988,21.4319992 41.9985,21.594 Z M59.2515,32.367 C59.2515,29.5049857 57.5775167,27.2505082 54.2295,25.6035 C53.3924958,26.3055035 52.5555042,27.2369942 51.7185,28.398 C50.6924949,29.8830074 49.8420034,31.5434908 49.167,33.3795 C48.8969986,34.1085036 48.6405012,35.1007437 48.3975,36.35625 C48.1544988,37.6117563 48.033,38.7794946 48.033,39.8595 C48.033,40.9665055 48.1882484,41.8507467 48.49875,42.51225 C48.8092516,43.1737533 49.3154965,43.5045 50.0175,43.5045 C50.5845028,43.5045 51.2459962,43.2750023 52.002,42.816 C54.0810104,41.6009939 55.8089931,40.089009 57.186,38.28 C58.5630069,36.470991 59.2515,34.5000107 59.2515,32.367 Z M60.3855,25.0365 C61.3575049,25.9545046 62.1067474,26.9939942 62.63325,28.155 C63.1597526,29.3160058 63.423,30.5444935 63.423,31.8405 C63.423,33.7035093 62.8830054,35.5934904 61.803,37.5105 C61.0739964,38.8065065 60.007507,40.1699928 58.6035,41.601 C57.199493,43.0320072 55.6402586,44.2402451 53.92575,45.22575 C52.2112414,46.2112549 50.5710078,46.704 49.005,46.704 C48.0329951,46.704 47.1150043,46.4880022 46.251,46.056 C44.4149908,45.056995 43.497,43.261513 43.497,40.6695 C43.497,38.8064907 43.9154958,36.7612611 44.7525,34.53375 C45.5895042,32.3062389 46.4804953,30.4230077 47.4255,28.884 C49.7205115,25.2389818 52.1369873,22.9440047 54.675,21.999 C55.3770035,21.7289986 56.132996,21.594 56.943,21.594 C57.8880047,21.594 58.6844968,21.8302476 59.3325,22.30275 C59.9805032,22.7752524 60.3584995,23.510995 60.4665,24.51 L60.4665,24.672 C60.4665,24.7530004 60.4395003,24.8744992 60.3855,25.0365 Z M81.243,23.862 C81.4320009,23.5379984 81.8977463,23.1937518 82.64025,22.82925 C83.3827537,22.4647482 84.0374972,22.2825 84.6045,22.2825 C85.4145041,22.2825 85.7655005,22.6604962 85.6575,23.4165 C85.6575,23.4975004 85.6440001,23.6189992 85.617,23.781 C85.5899999,23.9430008 85.5630001,24.0644996 85.536,24.1455 L85.536,24.2265 C85.2659987,26.035509 84.9622517,28.2022374 84.62475,30.72675 C84.2872483,33.2512626 84.0240009,35.2289928 83.835,36.66 L82.782,44.436 C82.7009996,44.9760027 82.3162534,45.4349981 81.62775,45.813 C80.9392466,46.1910019 80.2440035,46.38 79.542,46.38 C79.1099978,46.38 78.7657513,46.2855009 78.50925,46.0965 C78.2527487,45.9074991 78.1514997,45.6375018 78.2055,45.2865 C78.5025015,42.9644884 78.9749968,39.4815232 79.623,34.8375 L79.218,35.526 C78.5159965,36.7140059 77.9895018,37.5779973 77.6385,38.118 C76.4234939,40.0080095 75.1342568,41.6009935 73.77075,42.897 C72.4072432,44.1930065 70.8480088,45.0569978 69.093,45.489 C68.4179966,45.6510008 67.8105027,45.732 67.2705,45.732 C64.7324873,45.732 63.4635,44.0040173 63.4635,40.548 C63.4635,38.9279919 63.7199974,37.0852603 64.233,35.01975 C64.7460026,32.9542397 65.3332467,31.017009 65.99475,29.208 C66.6562533,27.398991 67.2299976,26.0220047 67.716,25.077 C67.9050009,24.6989981 68.3302467,24.3682514 68.99175,24.08475 C69.6532533,23.8012486 70.2944969,23.6595 70.9155,23.6595 C71.2935019,23.6595 71.5972489,23.7269993 71.82675,23.862 C72.0562511,23.9970007 72.171,24.1859988 72.171,24.429 C72.171,24.5370005 72.1305004,24.6989989 72.0495,24.915 C70.240491,28.8840198 69.0660027,32.4884838 68.526,35.7285 L68.3235,36.822 C68.1074989,37.9560057 67.9995,38.819997 67.9995,39.414 C67.9995,39.7110015 68.0129999,39.9269993 68.04,40.062 C68.3640016,41.4390069 68.8904964,42.0870004 69.6195,42.006 C69.9165015,41.9789999 70.2742479,41.7225024 70.69275,41.2365 C71.1112521,40.7504976 71.3744995,40.4535005 71.4825,40.3455 C72.8055066,38.8064923 74.0069946,37.1257591 75.087,35.30325 C76.1670054,33.4807409 77.4224928,31.1925138 78.8535,28.4385 C79.5825036,26.9534926 80.3789957,25.4280078 81.243,23.862 Z M100.9665,37.5105 C101.155501,37.3214991 101.452498,37.1730005 101.8575,37.065 C102.262502,36.9569995 102.667498,36.903 103.0725,36.903 C104.071505,36.903 104.571,37.1594974 104.571,37.6725 C104.571,37.9155012 104.436001,38.1854985 104.166,38.4825 C103.841998,38.8605019 103.545001,39.2182483 103.275,39.55575 L102.546,40.467 C101.357994,42.0060077 100.291505,43.2277455 99.3465,44.13225 C98.4014953,45.0367545 97.2945063,45.691498 96.0255,46.0965 C95.431497,46.2855009 94.7970034,46.38 94.122,46.38 C92.9879943,46.38 92.022754,46.0560032 91.22625,45.408 C90.429746,44.7599968 89.9640007,43.8150062 89.829,42.573 C89.7749997,42.2219982 89.748,41.6820036 89.748,40.953 C89.748,39.548993 89.9099984,38.1180073 90.234,36.66 C90.5580016,35.2019927 91.0304969,33.3795109 91.6515,31.1925 L92.1375,29.451 L90.5985,29.613 C89.8424962,29.6670003 88.8165065,29.7749992 87.5205,29.937 C86.8994969,30.0180004 86.4270016,29.9505011 86.103,29.7345 C85.7789984,29.5184989 85.617,29.2350018 85.617,28.884 C85.617,28.478998 85.812748,28.080752 86.20425,27.68925 C86.595752,27.297748 87.1019969,27.0750003 87.723,27.021 L92.9475,26.4135 C94.1355059,22.0394781 95.4719926,17.7465211 96.957,13.5345 C97.0920007,13.1564981 97.463247,12.8257514 98.07075,12.54225 C98.678253,12.2587486 99.2654972,12.117 99.8325,12.117 C100.183502,12.117 100.473749,12.1844993 100.70325,12.3195 C100.932751,12.4545007 101.0475,12.6569986 101.0475,12.927 C101.0475,13.0080004 101.0205,13.1564989 100.9665,13.3725 C99.4004922,17.773522 98.0910053,21.97198 97.038,25.968 C98.9280094,25.7789991 100.183497,25.6845 100.8045,25.6845 C101.587504,25.6845 101.979,25.9139977 101.979,26.373 C101.979,26.7510019 101.749502,27.1627478 101.2905,27.60825 C100.831498,28.0537522 100.359002,28.3304995 99.873,28.4385 C98.2529919,28.7085013 97.038004,28.8974995 96.228,29.0055 C95.7689977,30.8415092 95.3640018,32.6369912 95.013,34.392 C94.9589997,34.6080011 94.7700016,35.3977432 94.446,36.76125 C94.1219984,38.1247568 93.96,39.4004941 93.96,40.5885 C93.96,42.1275077 94.3649959,42.9644993 95.175,43.0995 C95.6880026,43.1805004 96.2752467,42.8902533 96.93675,42.22875 C97.5982533,41.5672467 98.4554947,40.5750066 99.5085,39.252 C100.156503,38.4149958 100.642498,37.8345016 100.9665,37.5105 Z M120.771,32.367 C120.771,29.5049857 119.097017,27.2505082 115.749,25.6035 C114.911996,26.3055035 114.075004,27.2369942 113.238,28.398 C112.211995,29.8830074 111.361503,31.5434908 110.6865,33.3795 C110.416499,34.1085036 110.160001,35.1007437 109.917,36.35625 C109.673999,37.6117563 109.5525,38.7794946 109.5525,39.8595 C109.5525,40.9665055 109.707748,41.8507467 110.01825,42.51225 C110.328752,43.1737533 110.834996,43.5045 111.537,43.5045 C112.104003,43.5045 112.765496,43.2750023 113.5215,42.816 C115.60051,41.6009939 117.328493,40.089009 118.7055,38.28 C120.082507,36.470991 120.771,34.5000107 120.771,32.367 Z M121.905,25.0365 C122.877005,25.9545046 123.626247,26.9939942 124.15275,28.155 C124.679253,29.3160058 124.9425,30.5444935 124.9425,31.8405 C124.9425,33.7035093 124.402505,35.5934904 123.3225,37.5105 C122.593496,38.8065065 121.527007,40.1699928 120.123,41.601 C118.718993,43.0320072 117.159759,44.2402451 115.44525,45.22575 C113.730741,46.2112549 112.090508,46.704 110.5245,46.704 C109.552495,46.704 108.634504,46.4880022 107.7705,46.056 C105.934491,45.056995 105.0165,43.261513 105.0165,40.6695 C105.0165,38.8064907 105.434996,36.7612611 106.272,34.53375 C107.109004,32.3062389 107.999995,30.4230077 108.945,28.884 C111.240011,25.2389818 113.656487,22.9440047 116.1945,21.999 C116.896504,21.7289986 117.652496,21.594 118.4625,21.594 C119.407505,21.594 120.203997,21.8302476 120.852,22.30275 C121.500003,22.7752524 121.877999,23.510995 121.986,24.51 L121.986,24.672 C121.986,24.7530004 121.959,24.8744992 121.905,25.0365 Z M142.7625,23.862 C142.951501,23.5379984 143.417246,23.1937518 144.15975,22.82925 C144.902254,22.4647482 145.556997,22.2825 146.124,22.2825 C146.934004,22.2825 147.285001,22.6604962 147.177,23.4165 C147.177,23.4975004 147.1635,23.6189992 147.1365,23.781 C147.1095,23.9430008 147.0825,24.0644996 147.0555,24.1455 L147.0555,24.2265 C146.785499,26.035509 146.481752,28.2022374 146.14425,30.72675 C145.806748,33.2512626 145.543501,35.2289928 145.3545,36.66 L144.3015,44.436 C144.2205,44.9760027 143.835753,45.4349981 143.14725,45.813 C142.458747,46.1910019 141.763504,46.38 141.0615,46.38 C140.629498,46.38 140.285251,46.2855009 140.02875,46.0965 C139.772249,45.9074991 139.671,45.6375018 139.725,45.2865 C140.022001,42.9644884 140.494497,39.4815232 141.1425,34.8375 L140.7375,35.526 C140.035496,36.7140059 139.509002,37.5779973 139.158,38.118 C137.942994,40.0080095 136.653757,41.6009935 135.29025,42.897 C133.926743,44.1930065 132.367509,45.0569978 130.6125,45.489 C129.937497,45.6510008 129.330003,45.732 128.79,45.732 C126.251987,45.732 124.983,44.0040173 124.983,40.548 C124.983,38.9279919 125.239497,37.0852603 125.7525,35.01975 C126.265503,32.9542397 126.852747,31.017009 127.51425,29.208 C128.175753,27.398991 128.749498,26.0220047 129.2355,25.077 C129.424501,24.6989981 129.849747,24.3682514 130.51125,24.08475 C131.172753,23.8012486 131.813997,23.6595 132.435,23.6595 C132.813002,23.6595 133.116749,23.7269993 133.34625,23.862 C133.575751,23.9970007 133.6905,24.1859988 133.6905,24.429 C133.6905,24.5370005 133.65,24.6989989 133.569,24.915 C131.759991,28.8840198 130.585503,32.4884838 130.0455,35.7285 L129.843,36.822 C129.626999,37.9560057 129.519,38.819997 129.519,39.414 C129.519,39.7110015 129.5325,39.9269993 129.5595,40.062 C129.883502,41.4390069 130.409996,42.0870004 131.139,42.006 C131.436001,41.9789999 131.793748,41.7225024 132.21225,41.2365 C132.630752,40.7504976 132.893999,40.4535005 133.002,40.3455 C134.325007,38.8064923 135.526495,37.1257591 136.6065,35.30325 C137.686505,33.4807409 138.941993,31.1925138 140.373,28.4385 C141.102004,26.9534926 141.898496,25.4280078 142.7625,23.862 Z M162.486,37.5105 C162.675001,37.3214991 162.971998,37.1730005 163.377,37.065 C163.782002,36.9569995 164.186998,36.903 164.592,36.903 C165.591005,36.903 166.0905,37.1594974 166.0905,37.6725 C166.0905,37.9155012 165.955501,38.1854985 165.6855,38.4825 C165.361498,38.8605019 165.064501,39.2182483 164.7945,39.55575 L164.0655,40.467 C162.877494,42.0060077 161.811005,43.2277455 160.866,44.13225 C159.920995,45.0367545 158.814006,45.691498 157.545,46.0965 C156.950997,46.2855009 156.316503,46.38 155.6415,46.38 C154.507494,46.38 153.542254,46.0560032 152.74575,45.408 C151.949246,44.7599968 151.483501,43.8150062 151.3485,42.573 C151.2945,42.2219982 151.2675,41.6820036 151.2675,40.953 C151.2675,39.548993 151.429498,38.1180073 151.7535,36.66 C152.077502,35.2019927 152.549997,33.3795109 153.171,31.1925 L153.657,29.451 L152.118,29.613 C151.361996,29.6670003 150.336006,29.7749992 149.04,29.937 C148.418997,30.0180004 147.946502,29.9505011 147.6225,29.7345 C147.298498,29.5184989 147.1365,29.2350018 147.1365,28.884 C147.1365,28.478998 147.332248,28.080752 147.72375,27.68925 C148.115252,27.297748 148.621497,27.0750003 149.2425,27.021 L154.467,26.4135 C155.655006,22.0394781 156.991493,17.7465211 158.4765,13.5345 C158.611501,13.1564981 158.982747,12.8257514 159.59025,12.54225 C160.197753,12.2587486 160.784997,12.117 161.352,12.117 C161.703002,12.117 161.993249,12.1844993 162.22275,12.3195 C162.452251,12.4545007 162.567,12.6569986 162.567,12.927 C162.567,13.0080004 162.54,13.1564989 162.486,13.3725 C160.919992,17.773522 159.610505,21.97198 158.5575,25.968 C160.447509,25.7789991 161.702997,25.6845 162.324,25.6845 C163.107004,25.6845 163.4985,25.9139977 163.4985,26.373 C163.4985,26.7510019 163.269002,27.1627478 162.81,27.60825 C162.350998,28.0537522 161.878502,28.3304995 161.3925,28.4385 C159.772492,28.7085013 158.557504,28.8974995 157.7475,29.0055 C157.288498,30.8415092 156.883502,32.6369912 156.5325,34.392 C156.4785,34.6080011 156.289502,35.3977432 155.9655,36.76125 C155.641498,38.1247568 155.4795,39.4004941 155.4795,40.5885 C155.4795,42.1275077 155.884496,42.9644993 156.6945,43.0995 C157.207503,43.1805004 157.794747,42.8902533 158.45625,42.22875 C159.117753,41.5672467 159.974995,40.5750066 161.028,39.252 C161.676003,38.4149958 162.161998,37.8345016 162.486,37.5105 Z M201.0825,14.9115 C201.676503,14.9385001 201.9735,15.1274982 201.9735,15.4785 C201.9735,15.883502 201.656253,16.3357475 201.02175,16.83525 C200.387247,17.3347525 199.827002,17.5845 199.341,17.5845 C197.018988,17.5845 194.440514,17.6519993 191.6055,17.787 C189.310489,26.994046 187.717504,35.5259607 186.8265,43.383 C187.204502,43.4100001 187.521749,43.4977493 187.77825,43.64625 C188.034751,43.7947507 188.163,43.9904988 188.163,44.2335 C188.163,44.5575016 187.920002,44.9084981 187.434,45.2865 L185.8545,46.5015 C185.665499,46.6905009 185.307753,46.8659992 184.78125,47.028 C184.254747,47.1900008 183.762002,47.271 183.303,47.271 C182.465996,47.271 182.088,46.9335034 182.169,46.2585 C183.114005,37.3754556 184.841987,28.033549 187.353,18.2325 L187.3125,18.0705 C184.234485,18.3405013 181.359013,18.6374984 178.686,18.9615 C178.280998,19.0155003 177.957001,18.9547509 177.714,18.77925 C177.470999,18.6037491 177.363,18.3270019 177.39,17.949 C177.417,17.5709981 177.653248,17.2605012 178.09875,17.0175 C178.544252,16.7744988 179.023497,16.5855007 179.5365,16.4505 C182.128513,15.6944962 185.017484,15.1815013 188.2035,14.9115 L188.4465,14.223 C188.554501,13.8449981 188.932497,13.5142514 189.5805,13.23075 C190.228503,12.9472486 190.862997,12.8055 191.484,12.8055 C191.889002,12.8055 192.206249,12.8864992 192.43575,13.0485 C192.665251,13.2105008 192.7395,13.4399985 192.6585,13.737 L192.4155,14.6685 L194.319,14.628 C196.29001,14.628 198.544487,14.7224991 201.0825,14.9115 Z M210.3165,32.367 C210.3165,29.5049857 208.642517,27.2505082 205.2945,25.6035 C204.457496,26.3055035 203.620504,27.2369942 202.7835,28.398 C201.757495,29.8830074 200.907003,31.5434908 200.232,33.3795 C199.961999,34.1085036 199.705501,35.1007437 199.4625,36.35625 C199.219499,37.6117563 199.098,38.7794946 199.098,39.8595 C199.098,40.9665055 199.253248,41.8507467 199.56375,42.51225 C199.874252,43.1737533 200.380496,43.5045 201.0825,43.5045 C201.649503,43.5045 202.310996,43.2750023 203.067,42.816 C205.14601,41.6009939 206.873993,40.089009 208.251,38.28 C209.628007,36.470991 210.3165,34.5000107 210.3165,32.367 Z M211.4505,25.0365 C212.422505,25.9545046 213.171747,26.9939942 213.69825,28.155 C214.224753,29.3160058 214.488,30.5444935 214.488,31.8405 C214.488,33.7035093 213.948005,35.5934904 212.868,37.5105 C212.138996,38.8065065 211.072507,40.1699928 209.6685,41.601 C208.264493,43.0320072 206.705259,44.2402451 204.99075,45.22575 C203.276241,46.2112549 201.636008,46.704 200.07,46.704 C199.097995,46.704 198.180004,46.4880022 197.316,46.056 C195.479991,45.056995 194.562,43.261513 194.562,40.6695 C194.562,38.8064907 194.980496,36.7612611 195.8175,34.53375 C196.654504,32.3062389 197.545495,30.4230077 198.4905,28.884 C200.785511,25.2389818 203.201987,22.9440047 205.74,21.999 C206.442004,21.7289986 207.197996,21.594 208.008,21.594 C208.953005,21.594 209.749497,21.8302476 210.3975,22.30275 C211.045503,22.7752524 211.423499,23.510995 211.5315,24.51 L211.5315,24.672 C211.5315,24.7530004 211.5045,24.8744992 211.4505,25.0365 Z" id="ShoutoutTo"></path>
            <path d="M21.92,33.84 C23.6000084,35.306674 24.44,36.8133256 24.44,38.36 C24.44,39.3733384 24.0933368,40.3866616 23.4,41.4 C20.9466544,44.9200176 18.0666832,47.0933292 14.76,47.92 C13.9066624,48.1333344 12.946672,48.24 11.88,48.24 C9.3733208,48.24 6.9733448,47.6133396 4.68,46.36 C3.5866612,45.7733304 2.8266688,45.013338 2.4,44.08 C1.9733312,43.146662 1.76,42.0400064 1.76,40.76 C1.76,39.8533288 1.8666656,38.5466752 2.08,36.84 C2.1600004,36.3866644 2.53333,36.16 3.2,36.16 C3.9466704,36.16 4.7066628,36.3999976 5.48,36.88 C6.2533372,37.3600024 6.6000004,37.8933304 6.52,38.48 C6.4933332,38.6933344 6.4266672,39.166663 6.32,39.9 C6.2133328,40.633337 6.16,41.3066636 6.16,41.92 C6.16,43.3066736 6.49333,44.2399976 7.16,44.72 C7.82667,45.2000024 8.693328,45.44 9.76,45.44 C10.826672,45.44 11.9333276,45.2133356 13.08,44.76 C13.9600044,44.4133316 14.9399946,43.840004 16.02,43.04 C17.1000054,42.239996 18.0199962,41.3333384 18.78,40.32 C19.5400038,39.3066616 19.92,38.3200048 19.92,37.36 C19.92,36.5866628 19.653336,35.8800032 19.12,35.24 C18.586664,34.6266636 17.8333382,34.0400028 16.86,33.48 C15.8866618,32.9199972 14.600008,32.2666704 13,31.52 C11.0266568,30.586662 9.4466726,29.7666702 8.26,29.06 C7.0733274,28.3533298 6.0533376,27.5133382 5.2,26.54 C4.3466624,25.5666618 3.92,24.4666728 3.92,23.24 C3.92,22.6799972 3.986666,22.1866688 4.12,21.76 C4.7600032,19.359988 6.3399874,17.6333386 8.86,16.58 C11.3800126,15.5266614 14.106652,15 17.04,15 C18.3200064,15 19.4399952,15.0799992 20.4,15.24 C21.3600048,15.4000008 22.1599968,15.746664 22.8,16.28 C23.5200036,16.8666696 23.88,17.693328 23.88,18.76 C23.88,19.4000032 23.780001,20.0333302 23.58,20.66 C23.379999,21.2866698 23.080002,22.133328 22.68,23.2 C22.3866652,23.9200036 22.2133336,24.3599992 22.16,24.52 C21.9999992,24.9733356 21.5600036,25.2 20.84,25.2 C20.1199964,25.2 19.4133368,25.000002 18.72,24.6 C18.0266632,24.199998 17.68,23.7466692 17.68,23.24 C17.68,23.106666 17.6933332,23.0000004 17.72,22.92 L18.32,21.2 C18.586668,20.4533296 18.7733328,19.8933352 18.88,19.52 L19.16,17.84 C15.7999832,17.7866664 13.12001,18.4666596 11.12,19.88 C10.319996,20.413336 9.7000022,21.0333298 9.26,21.74 C8.8199978,22.4466702 8.6,23.1599964 8.6,23.88 C8.6,25.1333396 9.2266604,26.2133288 10.48,27.12 C11.3866712,27.7600032 12.3933278,28.3599972 13.5,28.92 C14.6066722,29.4800028 15.2799988,29.826666 15.52,29.96 C17.0666744,30.7333372 18.3133286,31.386664 19.26,31.92 C20.2066714,32.453336 21.0933292,33.0933296 21.92,33.84 Z M42.48,22.92 C42.9066688,23.053334 43.1066668,23.3333312 43.08,23.76 C42.3333296,30.9067024 41.2400072,38.3599612 39.8,46.12 C39.6933328,46.6266692 39.3200032,47.0533316 38.68,47.4 C38.0399968,47.7466684 37.4000032,47.92 36.76,47.92 C36.359998,47.92 36.0400012,47.8333342 35.8,47.66 C35.5599988,47.4866658 35.4799996,47.2400016 35.56,46.92 C36.2000032,44.1466528 36.7333312,41.3066812 37.16,38.4 C37.5866688,35.4933188 37.999998,32.1600188 38.4,28.4 C36.2133224,30.4266768 34.0266776,32.639988 31.84,35.04 L29.64,47.2 C29.5333328,47.7066692 29.14667,48.1466648 28.48,48.52 C27.81333,48.8933352 27.14667,49.08 26.48,49.08 C26.079998,49.08 25.7733344,48.9933342 25.56,48.82 C25.3466656,48.6466658 25.2666664,48.3866684 25.32,48.04 L27.28,37.04 C26.9599984,36.9599996 26.8,36.7733348 26.8,36.48 C26.8,36.2666656 26.9199988,36.0000016 27.16,35.68 L27.64,35.04 L31.24,15.48 C31.3200004,14.9999976 31.69333,14.5866684 32.36,14.24 C33.02667,13.8933316 33.6799968,13.72 34.32,13.72 C34.6933352,13.72 34.9866656,13.7999992 35.2,13.96 C35.4133344,14.1200008 35.4933336,14.3466652 35.44,14.64 L32.88,29.12 C34.8533432,27.1466568 37.0533212,25.2666756 39.48,23.48 C40.2533372,22.946664 40.97333,22.68 41.64,22.68 C41.9600016,22.68 42.2399988,22.7599992 42.48,22.92 Z M59.52,33.56 C59.52,30.7333192 57.8666832,28.5066748 54.56,26.88 C53.7333292,27.5733368 52.9066708,28.4933276 52.08,29.64 C51.0666616,31.106674 50.22667,32.7466576 49.56,34.56 C49.293332,35.2800036 49.0400012,36.2599938 48.8,37.5 C48.5599988,38.7400062 48.44,39.893328 48.44,40.96 C48.44,42.0533388 48.5933318,42.9266634 48.9,43.58 C49.2066682,44.2333366 49.7066632,44.56 50.4,44.56 C50.9600028,44.56 51.6133296,44.3333356 52.36,43.88 C54.4133436,42.679994 56.1199932,41.1866756 57.48,39.4 C58.8400068,37.6133244 59.52,35.6666772 59.52,33.56 Z M60.64,26.32 C61.6000048,27.2266712 62.3399974,28.2533276 62.86,29.4 C63.3800026,30.5466724 63.64,31.7599936 63.64,33.04 C63.64,34.8800092 63.106672,36.7466572 62.04,38.64 C61.3199964,39.9200064 60.2666736,41.2666596 58.88,42.68 C57.4933264,44.0933404 55.9533418,45.2866618 54.26,46.26 C52.5666582,47.2333382 50.9466744,47.72 49.4,47.72 C48.4399952,47.72 47.5333376,47.5066688 46.68,47.08 C44.8666576,46.0933284 43.96,44.3200128 43.96,41.76 C43.96,39.92 44.3733292,37.900011 45.2,35.7 C46.0266708,33.499989 46.906662,31.6400076 47.84,30.12 C50.106678,26.519982 52.4933208,24.253338 55,23.32 C55.6933368,23.053332 56.439996,22.92 57.24,22.92 C58.173338,22.92 58.9599968,23.153331 59.6,23.62 C60.2400032,24.086669 60.6133328,24.8133284 60.72,25.8 L60.72,25.96 C60.72,26.0400004 60.6933336,26.1599992 60.64,26.32 Z M81.24,25.16 C81.4266676,24.8399984 81.886663,24.5000018 82.62,24.14 C83.353337,23.7799982 83.9999972,23.6 84.56,23.6 C85.360004,23.6 85.7066672,23.9733296 85.6,24.72 C85.6,24.8000004 85.5866668,24.9199992 85.56,25.08 C85.5333332,25.2400008 85.5066668,25.3599996 85.48,25.44 L85.48,25.52 C85.213332,27.3066756 84.913335,29.4466542 84.58,31.94 C84.246665,34.4333458 83.9866676,36.3866596 83.8,37.8 L82.76,45.48 C82.6799996,46.013336 82.3000034,46.4666648 81.62,46.84 C80.9399966,47.2133352 80.2533368,47.4 79.56,47.4 C79.1333312,47.4 78.7933346,47.3066676 78.54,47.12 C78.2866654,46.9333324 78.1866664,46.6666684 78.24,46.32 C78.5333348,44.0266552 78.9999968,40.5866896 79.64,36 L79.24,36.68 C78.5466632,37.8533392 78.0266684,38.706664 77.68,39.24 C76.479994,41.106676 75.2066734,42.6799936 73.86,43.96 C72.5133266,45.2400064 70.973342,46.0933312 69.24,46.52 C68.57333,46.6800008 67.973336,46.76 67.44,46.76 C64.9333208,46.76 63.68,45.0533504 63.68,41.64 C63.68,40.039992 63.9333308,38.2200102 64.44,36.18 C64.9466692,34.1399898 65.5266634,32.2266756 66.18,30.44 C66.8333366,28.6533244 67.3999976,27.293338 67.88,26.36 C68.0666676,25.9866648 68.4866634,25.6600014 69.14,25.38 C69.7933366,25.0999986 70.4266636,24.96 71.04,24.96 C71.4133352,24.96 71.7133322,25.026666 71.94,25.16 C72.1666678,25.293334 72.28,25.4799988 72.28,25.72 C72.28,25.8266672 72.2400004,25.9866656 72.16,26.2 C70.3733244,30.1200196 69.213336,33.679984 68.68,36.88 L68.48,37.96 C68.2666656,39.0800056 68.16,39.9333304 68.16,40.52 C68.16,40.8133348 68.1733332,41.026666 68.2,41.16 C68.5200016,42.5200068 69.0399964,43.1600004 69.76,43.08 C70.0533348,43.0533332 70.4066646,42.8000024 70.82,42.32 C71.2333354,41.8399976 71.4933328,41.5466672 71.6,41.44 C72.9066732,39.9199924 74.093328,38.260009 75.16,36.46 C76.226672,34.659991 77.4666596,32.4000136 78.88,29.68 C79.6000036,28.213326 80.3866624,26.7066744 81.24,25.16 Z M100.72,38.64 C100.906668,38.4533324 101.199998,38.3066672 101.6,38.2 C102.000002,38.0933328 102.399998,38.04 102.8,38.04 C103.786672,38.04 104.28,38.2933308 104.28,38.8 C104.28,39.0400012 104.146668,39.3066652 103.88,39.6 C103.559998,39.9733352 103.266668,40.326665 103,40.66 L102.28,41.56 C101.106661,43.0800076 100.053338,44.2866622 99.12,45.18 C98.186662,46.0733378 97.0933396,46.719998 95.84,47.12 C95.2533304,47.3066676 94.62667,47.4 93.96,47.4 C92.8399944,47.4 91.8866706,47.0800032 91.1,46.44 C90.3133294,45.7999968 89.853334,44.8666728 89.72,43.64 C89.6666664,43.2933316 89.64,42.7600036 89.64,42.04 C89.64,40.6533264 89.7999984,39.2400072 90.12,37.8 C90.4400016,36.3599928 90.9066636,34.5600108 91.52,32.4 L92,30.68 L90.48,30.84 C89.7333296,30.8933336 88.7200064,30.9999992 87.44,31.16 C86.8266636,31.2400004 86.3600016,31.1733344 86.04,30.96 C85.7199984,30.7466656 85.56,30.4666684 85.56,30.12 C85.56,29.719998 85.7533314,29.3266686 86.14,28.94 C86.5266686,28.5533314 87.0266636,28.3333336 87.64,28.28 L92.8,27.68 C93.9733392,23.3599784 95.293326,19.1200208 96.76,14.96 C96.893334,14.5866648 97.259997,14.2600014 97.86,13.98 C98.460003,13.6999986 99.0399972,13.56 99.6,13.56 C99.9466684,13.56 100.233332,13.626666 100.46,13.76 C100.686668,13.893334 100.8,14.093332 100.8,14.36 C100.8,14.4400004 100.773334,14.5866656 100.72,14.8 C99.1733256,19.1466884 97.8800052,23.2933136 96.84,27.24 C98.706676,27.0533324 99.9466636,26.96 100.56,26.96 C101.333337,26.96 101.72,27.1866644 101.72,27.64 C101.72,28.0133352 101.493336,28.4199978 101.04,28.86 C100.586664,29.3000022 100.120002,29.5733328 99.64,29.68 C98.039992,29.946668 96.840004,30.1333328 96.04,30.24 C95.5866644,32.0533424 95.1866684,33.826658 94.84,35.56 C94.7866664,35.7733344 94.6000016,36.5533266 94.28,37.9 C93.9599984,39.2466734 93.8,40.5066608 93.8,41.68 C93.8,43.2000076 94.199996,44.026666 95,44.16 C95.5066692,44.2400004 96.0866634,43.9533366 96.74,43.3 C97.3933366,42.6466634 98.2399948,41.6666732 99.28,40.36 C99.9200032,39.5333292 100.399998,38.9600016 100.72,38.64 Z M120.28,33.56 C120.28,30.7333192 118.626683,28.5066748 115.32,26.88 C114.493329,27.5733368 113.666671,28.4933276 112.84,29.64 C111.826662,31.106674 110.98667,32.7466576 110.32,34.56 C110.053332,35.2800036 109.800001,36.2599938 109.56,37.5 C109.319999,38.7400062 109.2,39.893328 109.2,40.96 C109.2,42.0533388 109.353332,42.9266634 109.66,43.58 C109.966668,44.2333366 110.466663,44.56 111.16,44.56 C111.720003,44.56 112.37333,44.3333356 113.12,43.88 C115.173344,42.679994 116.879993,41.1866756 118.24,39.4 C119.600007,37.6133244 120.28,35.6666772 120.28,33.56 Z M121.4,26.32 C122.360005,27.2266712 123.099997,28.2533276 123.62,29.4 C124.140003,30.5466724 124.4,31.7599936 124.4,33.04 C124.4,34.8800092 123.866672,36.7466572 122.8,38.64 C122.079996,39.9200064 121.026674,41.2666596 119.64,42.68 C118.253326,44.0933404 116.713342,45.2866618 115.02,46.26 C113.326658,47.2333382 111.706674,47.72 110.16,47.72 C109.199995,47.72 108.293338,47.5066688 107.44,47.08 C105.626658,46.0933284 104.72,44.3200128 104.72,41.76 C104.72,39.92 105.133329,37.900011 105.96,35.7 C106.786671,33.499989 107.666662,31.6400076 108.6,30.12 C110.866678,26.519982 113.253321,24.253338 115.76,23.32 C116.453337,23.053332 117.199996,22.92 118,22.92 C118.933338,22.92 119.719997,23.153331 120.36,23.62 C121.000003,24.086669 121.373333,24.8133284 121.48,25.8 L121.48,25.96 C121.48,26.0400004 121.453334,26.1599992 121.4,26.32 Z M142,25.16 C142.186668,24.8399984 142.646663,24.5000018 143.38,24.14 C144.113337,23.7799982 144.759997,23.6 145.32,23.6 C146.120004,23.6 146.466667,23.9733296 146.36,24.72 C146.36,24.8000004 146.346667,24.9199992 146.32,25.08 C146.293333,25.2400008 146.266667,25.3599996 146.24,25.44 L146.24,25.52 C145.973332,27.3066756 145.673335,29.4466542 145.34,31.94 C145.006665,34.4333458 144.746668,36.3866596 144.56,37.8 L143.52,45.48 C143.44,46.013336 143.060003,46.4666648 142.38,46.84 C141.699997,47.2133352 141.013337,47.4 140.32,47.4 C139.893331,47.4 139.553335,47.3066676 139.3,47.12 C139.046665,46.9333324 138.946666,46.6666684 139,46.32 C139.293335,44.0266552 139.759997,40.5866896 140.4,36 L140,36.68 C139.306663,37.8533392 138.786668,38.706664 138.44,39.24 C137.239994,41.106676 135.966673,42.6799936 134.62,43.96 C133.273327,45.2400064 131.733342,46.0933312 130,46.52 C129.33333,46.6800008 128.733336,46.76 128.2,46.76 C125.693321,46.76 124.44,45.0533504 124.44,41.64 C124.44,40.039992 124.693331,38.2200102 125.2,36.18 C125.706669,34.1399898 126.286663,32.2266756 126.94,30.44 C127.593337,28.6533244 128.159998,27.293338 128.64,26.36 C128.826668,25.9866648 129.246663,25.6600014 129.9,25.38 C130.553337,25.0999986 131.186664,24.96 131.8,24.96 C132.173335,24.96 132.473332,25.026666 132.7,25.16 C132.926668,25.293334 133.04,25.4799988 133.04,25.72 C133.04,25.8266672 133,25.9866656 132.92,26.2 C131.133324,30.1200196 129.973336,33.679984 129.44,36.88 L129.24,37.96 C129.026666,39.0800056 128.92,39.9333304 128.92,40.52 C128.92,40.8133348 128.933333,41.026666 128.96,41.16 C129.280002,42.5200068 129.799996,43.1600004 130.52,43.08 C130.813335,43.0533332 131.166665,42.8000024 131.58,42.32 C131.993335,41.8399976 132.253333,41.5466672 132.36,41.44 C133.666673,39.9199924 134.853328,38.260009 135.92,36.46 C136.986672,34.659991 138.22666,32.4000136 139.64,29.68 C140.360004,28.213326 141.146662,26.7066744 142,25.16 Z M161.48,38.64 C161.666668,38.4533324 161.959998,38.3066672 162.36,38.2 C162.760002,38.0933328 163.159998,38.04 163.56,38.04 C164.546672,38.04 165.04,38.2933308 165.04,38.8 C165.04,39.0400012 164.906668,39.3066652 164.64,39.6 C164.319998,39.9733352 164.026668,40.326665 163.76,40.66 L163.04,41.56 C161.866661,43.0800076 160.813338,44.2866622 159.88,45.18 C158.946662,46.0733378 157.85334,46.719998 156.6,47.12 C156.01333,47.3066676 155.38667,47.4 154.72,47.4 C153.599994,47.4 152.646671,47.0800032 151.86,46.44 C151.073329,45.7999968 150.613334,44.8666728 150.48,43.64 C150.426666,43.2933316 150.4,42.7600036 150.4,42.04 C150.4,40.6533264 150.559998,39.2400072 150.88,37.8 C151.200002,36.3599928 151.666664,34.5600108 152.28,32.4 L152.76,30.68 L151.24,30.84 C150.49333,30.8933336 149.480006,30.9999992 148.2,31.16 C147.586664,31.2400004 147.120002,31.1733344 146.8,30.96 C146.479998,30.7466656 146.32,30.4666684 146.32,30.12 C146.32,29.719998 146.513331,29.3266686 146.9,28.94 C147.286669,28.5533314 147.786664,28.3333336 148.4,28.28 L153.56,27.68 C154.733339,23.3599784 156.053326,19.1200208 157.52,14.96 C157.653334,14.5866648 158.019997,14.2600014 158.62,13.98 C159.220003,13.6999986 159.799997,13.56 160.36,13.56 C160.706668,13.56 160.993332,13.626666 161.22,13.76 C161.446668,13.893334 161.56,14.093332 161.56,14.36 C161.56,14.4400004 161.533334,14.5866656 161.48,14.8 C159.933326,19.1466884 158.640005,23.2933136 157.6,27.24 C159.466676,27.0533324 160.706664,26.96 161.32,26.96 C162.093337,26.96 162.48,27.1866644 162.48,27.64 C162.48,28.0133352 162.253336,28.4199978 161.8,28.86 C161.346664,29.3000022 160.880002,29.5733328 160.4,29.68 C158.799992,29.946668 157.600004,30.1333328 156.8,30.24 C156.346664,32.0533424 155.946668,33.826658 155.6,35.56 C155.546666,35.7733344 155.360002,36.5533266 155.04,37.9 C154.719998,39.2466734 154.56,40.5066608 154.56,41.68 C154.56,43.2000076 154.959996,44.026666 155.76,44.16 C156.266669,44.2400004 156.846663,43.9533366 157.5,43.3 C158.153337,42.6466634 158.999995,41.6666732 160.04,40.36 C160.680003,39.5333292 161.159998,38.9600016 161.48,38.64 Z M199.6,16.32 C200.18667,16.3466668 200.48,16.5333316 200.48,16.88 C200.48,17.280002 200.16667,17.7266642 199.54,18.22 C198.91333,18.7133358 198.360002,18.96 197.88,18.96 C195.586655,18.96 193.040014,19.026666 190.24,19.16 C187.973322,28.2533788 186.400004,36.6799612 185.52,44.44 C185.893335,44.4666668 186.206665,44.5533326 186.46,44.7 C186.713335,44.8466674 186.84,45.0399988 186.84,45.28 C186.84,45.6000016 186.600002,45.9466648 186.12,46.32 L184.56,47.52 C184.373332,47.7066676 184.020003,47.8799992 183.5,48.04 C182.979997,48.2000008 182.493336,48.28 182.04,48.28 C181.213329,48.28 180.84,47.94667 180.92,47.28 C181.853338,38.5066228 183.559988,29.2800484 186.04,19.6 L186,19.44 C182.959985,19.706668 180.120013,19.9999984 177.48,20.32 C177.079998,20.3733336 176.760001,20.3133342 176.52,20.14 C176.279999,19.9666658 176.173333,19.6933352 176.2,19.32 C176.226667,18.9466648 176.459998,18.6400012 176.9,18.4 C177.340002,18.1599988 177.813331,17.973334 178.32,17.84 C180.880013,17.0933296 183.733318,16.586668 186.88,16.32 L187.12,15.64 C187.226667,15.2666648 187.599997,14.9400014 188.24,14.66 C188.880003,14.3799986 189.506664,14.24 190.12,14.24 C190.520002,14.24 190.833332,14.3199992 191.06,14.48 C191.286668,14.6400008 191.36,14.8666652 191.28,15.16 L191.04,16.08 L192.92,16.04 C194.866676,16.04 197.093321,16.1333324 199.6,16.32 Z M208.72,33.56 C208.72,30.7333192 207.066683,28.5066748 203.76,26.88 C202.933329,27.5733368 202.106671,28.4933276 201.28,29.64 C200.266662,31.106674 199.42667,32.7466576 198.76,34.56 C198.493332,35.2800036 198.240001,36.2599938 198,37.5 C197.759999,38.7400062 197.64,39.893328 197.64,40.96 C197.64,42.0533388 197.793332,42.9266634 198.1,43.58 C198.406668,44.2333366 198.906663,44.56 199.6,44.56 C200.160003,44.56 200.81333,44.3333356 201.56,43.88 C203.613344,42.679994 205.319993,41.1866756 206.68,39.4 C208.040007,37.6133244 208.72,35.6666772 208.72,33.56 Z M209.84,26.32 C210.800005,27.2266712 211.539997,28.2533276 212.06,29.4 C212.580003,30.5466724 212.84,31.7599936 212.84,33.04 C212.84,34.8800092 212.306672,36.7466572 211.24,38.64 C210.519996,39.9200064 209.466674,41.2666596 208.08,42.68 C206.693326,44.0933404 205.153342,45.2866618 203.46,46.26 C201.766658,47.2333382 200.146674,47.72 198.6,47.72 C197.639995,47.72 196.733338,47.5066688 195.88,47.08 C194.066658,46.0933284 193.16,44.3200128 193.16,41.76 C193.16,39.92 193.573329,37.900011 194.4,35.7 C195.226671,33.499989 196.106662,31.6400076 197.04,30.12 C199.306678,26.519982 201.693321,24.253338 204.2,23.32 C204.893337,23.053332 205.639996,22.92 206.44,22.92 C207.373338,22.92 208.159997,23.153331 208.8,23.62 C209.440003,24.086669 209.813333,24.8133284 209.92,25.8 L209.92,25.96 C209.92,26.0400004 209.893334,26.1599992 209.84,26.32 Z" id="ShoutoutTo"></path>
        </g>
    </g>
</svg>