<?xml version="1.0" encoding="UTF-8"?>
<svg width="530px" height="76px" viewBox="0 0 530 76" version="1.1" xmlns="http://www.w3.org/2000/svg" xmlns:xlink="http://www.w3.org/1999/xlink">
    <!-- Generator: Sketch 54.1 (76490) - https://sketchapp.com -->
    <title>Group 30 Copy</title>
    <desc>Created with Sketch.</desc>
    <g id="Page-1" stroke="none" stroke-width="1" fill="none" fill-rule="evenodd">
        <g id="Group-30-Copy" transform="translate(3.000000, -10.000000)">
            <path d="M28.92,31.84 C30.6000084,33.306674 31.44,34.8133256 31.44,36.36 C31.44,37.3733384 31.0933368,38.3866616 30.4,39.4 C27.9466544,42.9200176 25.0666832,45.0933292 21.76,45.92 C20.9066624,46.1333344 19.946672,46.24 18.88,46.24 C16.3733208,46.24 13.9733448,45.6133396 11.68,44.36 C10.5866612,43.7733304 9.8266688,43.013338 9.4,42.08 C8.9733312,41.146662 8.76,40.0400064 8.76,38.76 C8.76,37.8533288 8.8666656,36.5466752 9.08,34.84 C9.1600004,34.3866644 9.53333,34.16 10.2,34.16 C10.9466704,34.16 11.7066628,34.3999976 12.48,34.88 C13.2533372,35.3600024 13.6000004,35.8933304 13.52,36.48 C13.4933332,36.6933344 13.4266672,37.166663 13.32,37.9 C13.2133328,38.633337 13.16,39.3066636 13.16,39.92 C13.16,41.3066736 13.49333,42.2399976 14.16,42.72 C14.82667,43.2000024 15.693328,43.44 16.76,43.44 C17.826672,43.44 18.9333276,43.2133356 20.08,42.76 C20.9600044,42.4133316 21.9399946,41.840004 23.02,41.04 C24.1000054,40.239996 25.0199962,39.3333384 25.78,38.32 C26.5400038,37.3066616 26.92,36.3200048 26.92,35.36 C26.92,34.5866628 26.653336,33.8800032 26.12,33.24 C25.586664,32.6266636 24.8333382,32.0400028 23.86,31.48 C22.8866618,30.9199972 21.600008,30.2666704 20,29.52 C18.0266568,28.586662 16.4466726,27.7666702 15.26,27.06 C14.0733274,26.3533298 13.0533376,25.5133382 12.2,24.54 C11.3466624,23.5666618 10.92,22.4666728 10.92,21.24 C10.92,20.6799972 10.986666,20.1866688 11.12,19.76 C11.7600032,17.359988 13.3399874,15.6333386 15.86,14.58 C18.3800126,13.5266614 21.106652,13 24.04,13 C25.3200064,13 26.4399952,13.0799992 27.4,13.24 C28.3600048,13.4000008 29.1599968,13.746664 29.8,14.28 C30.5200036,14.8666696 30.88,15.693328 30.88,16.76 C30.88,17.4000032 30.780001,18.0333302 30.58,18.66 C30.379999,19.2866698 30.080002,20.133328 29.68,21.2 C29.3866652,21.9200036 29.2133336,22.3599992 29.16,22.52 C28.9999992,22.9733356 28.5600036,23.2 27.84,23.2 C27.1199964,23.2 26.4133368,23.000002 25.72,22.6 C25.0266632,22.199998 24.68,21.7466692 24.68,21.24 C24.68,21.106666 24.6933332,21.0000004 24.72,20.92 L25.32,19.2 C25.586668,18.4533296 25.7733328,17.8933352 25.88,17.52 L26.16,15.84 C22.7999832,15.7866664 20.12001,16.4666596 18.12,17.88 C17.319996,18.413336 16.7000022,19.0333298 16.26,19.74 C15.8199978,20.4466702 15.6,21.1599964 15.6,21.88 C15.6,23.1333396 16.2266604,24.2133288 17.48,25.12 C18.3866712,25.7600032 19.3933278,26.3599972 20.5,26.92 C21.6066722,27.4800028 22.2799988,27.826666 22.52,27.96 C24.0666744,28.7333372 25.3133286,29.386664 26.26,29.92 C27.2066714,30.453336 28.0933292,31.0933296 28.92,31.84 Z M47.92,31.56 C47.92,28.7333192 46.2666832,26.5066748 42.96,24.88 C42.1333292,25.5733368 41.3066708,26.4933276 40.48,27.64 C39.4666616,29.106674 38.62667,30.7466576 37.96,32.56 C37.693332,33.2800036 37.4400012,34.2599938 37.2,35.5 C36.9599988,36.7400062 36.84,37.893328 36.84,38.96 C36.84,40.0533388 36.9933318,40.9266634 37.3,41.58 C37.6066682,42.2333366 38.1066632,42.56 38.8,42.56 C39.3600028,42.56 40.0133296,42.3333356 40.76,41.88 C42.8133436,40.679994 44.5199932,39.1866756 45.88,37.4 C47.2400068,35.6133244 47.92,33.6666772 47.92,31.56 Z M49.04,24.32 C50.0000048,25.2266712 50.7399974,26.2533276 51.26,27.4 C51.7800026,28.5466724 52.04,29.7599936 52.04,31.04 C52.04,32.8800092 51.506672,34.7466572 50.44,36.64 C49.7199964,37.9200064 48.6666736,39.2666596 47.28,40.68 C45.8933264,42.0933404 44.3533418,43.2866618 42.66,44.26 C40.9666582,45.2333382 39.3466744,45.72 37.8,45.72 C36.8399952,45.72 35.9333376,45.5066688 35.08,45.08 C33.2666576,44.0933284 32.36,42.3200128 32.36,39.76 C32.36,37.92 32.7733292,35.900011 33.6,33.7 C34.4266708,31.499989 35.306662,29.6400076 36.24,28.12 C38.506678,24.519982 40.8933208,22.253338 43.4,21.32 C44.0933368,21.053332 44.839996,20.92 45.64,20.92 C46.573338,20.92 47.3599968,21.153331 48,21.62 C48.6400032,22.086669 49.0133328,22.8133284 49.12,23.8 L49.12,23.96 C49.12,24.0400004 49.0933336,24.1599992 49.04,24.32 Z M69.64,23.16 C69.8266676,22.8399984 70.286663,22.5000018 71.02,22.14 C71.753337,21.7799982 72.3999972,21.6 72.96,21.6 C73.760004,21.6 74.1066672,21.9733296 74,22.72 C74,22.8000004 73.9866668,22.9199992 73.96,23.08 C73.9333332,23.2400008 73.9066668,23.3599996 73.88,23.44 L73.88,23.52 C73.613332,25.3066756 73.313335,27.4466542 72.98,29.94 C72.646665,32.4333458 72.3866676,34.3866596 72.2,35.8 L71.16,43.48 C71.0799996,44.013336 70.7000034,44.4666648 70.02,44.84 C69.3399966,45.2133352 68.6533368,45.4 67.96,45.4 C67.5333312,45.4 67.1933346,45.3066676 66.94,45.12 C66.6866654,44.9333324 66.5866664,44.6666684 66.64,44.32 C66.9333348,42.0266552 67.3999968,38.5866896 68.04,34 L67.64,34.68 C66.9466632,35.8533392 66.4266684,36.706664 66.08,37.24 C64.879994,39.106676 63.6066734,40.6799936 62.26,41.96 C60.9133266,43.2400064 59.373342,44.0933312 57.64,44.52 C56.97333,44.6800008 56.373336,44.76 55.84,44.76 C53.3333208,44.76 52.08,43.0533504 52.08,39.64 C52.08,38.039992 52.3333308,36.2200102 52.84,34.18 C53.3466692,32.1399898 53.9266634,30.2266756 54.58,28.44 C55.2333366,26.6533244 55.7999976,25.293338 56.28,24.36 C56.4666676,23.9866648 56.8866634,23.6600014 57.54,23.38 C58.1933366,23.0999986 58.8266636,22.96 59.44,22.96 C59.8133352,22.96 60.1133322,23.026666 60.34,23.16 C60.5666678,23.293334 60.68,23.4799988 60.68,23.72 C60.68,23.8266672 60.6400004,23.9866656 60.56,24.2 C58.7733244,28.1200196 57.613336,31.679984 57.08,34.88 L56.88,35.96 C56.6666656,37.0800056 56.56,37.9333304 56.56,38.52 C56.56,38.8133348 56.5733332,39.026666 56.6,39.16 C56.9200016,40.5200068 57.4399964,41.1600004 58.16,41.08 C58.4533348,41.0533332 58.8066646,40.8000024 59.22,40.32 C59.6333354,39.8399976 59.8933328,39.5466672 60,39.44 C61.3066732,37.9199924 62.493328,36.260009 63.56,34.46 C64.626672,32.659991 65.8666596,30.4000136 67.28,27.68 C68.0000036,26.213326 68.7866624,24.7066744 69.64,23.16 Z M90.12,21.12 C91.186672,21.7066696 91.72,22.9466572 91.72,24.84 C91.72,25.5333368 91.653334,26.2999958 91.52,27.14 C91.386666,27.9800042 91.2400008,28.7733296 91.08,29.52 L90.8,31.12 L89.12,43.56 C89.653336,43.693334 89.8800004,44.026664 89.8,44.56 C89.5066652,46.026674 88.4666756,46.959998 86.68,47.36 L86.28,47.4 C85.8266644,47.4 85.4266684,47.3066676 85.08,47.12 C84.7333316,46.9333324 84.5866664,46.640002 84.64,46.24 C85.7600056,38.1332928 86.586664,32.0533536 87.12,28 C87.1466668,27.8933328 87.2066662,27.5866692 87.3,27.08 C87.3933338,26.5733308 87.44,26.0933356 87.44,25.64 C87.44,24.7866624 87.2133356,24.3466668 86.76,24.32 C86.4133316,24.2666664 85.8466706,24.739995 85.06,25.74 C84.2733294,26.740005 83.8400004,27.2933328 83.76,27.4 C82.159992,29.2133424 80.6666736,31.2399888 79.28,33.48 C78.6399968,37.3733528 78.1333352,40.519988 77.76,42.92 L77.56,44.2 C77.4799996,44.7066692 77.10667,45.1466648 76.44,45.52 C75.77333,45.8933352 75.1200032,46.08 74.48,46.08 C74.079998,46.08 73.7666678,45.9933342 73.54,45.82 C73.3133322,45.6466658 73.2266664,45.3866684 73.28,45.04 C73.9733368,40.9599796 74.519998,37.6266796 74.92,35.04 C74.7599992,34.8799992 74.68,34.6933344 74.68,34.48 C74.68,34.346666 74.7199996,34.2000008 74.8,34.04 C74.8800004,33.906666 74.953333,33.7866672 75.02,33.68 C75.086667,33.5733328 75.1466664,33.4800004 75.2,33.4 L76.8,23.72 C76.8800004,23.2399976 77.2399968,22.8266684 77.88,22.48 C78.5200032,22.1333316 79.1599968,21.96 79.8,21.96 C80.200002,21.96 80.5066656,22.0399992 80.72,22.2 C80.9333344,22.3600008 81.0133336,22.5999984 80.96,22.92 C80.826666,23.8000044 80.6400012,24.9333264 80.4,26.32 L82.08,24.52 C83.2000056,23.3999944 84.2666616,22.4800036 85.28,21.76 C86.2933384,21.0399964 87.3199948,20.68 88.36,20.68 C89.02667,20.68 89.6133308,20.8266652 90.12,21.12 Z M97.6,42.08 C98.1066692,42.480002 98.759996,42.68 99.56,42.68 C100.493338,42.68 101.679993,42.3733364 103.12,41.76 C103.973338,36.826642 104.639998,31.9733572 105.12,27.2 L105.04,27.2 C103.599993,27.2 102.280006,27.6933284 101.08,28.68 C99.879994,29.6666716 98.8866706,30.893326 98.1,32.36 C97.3133294,33.826674 96.7733348,35.2799928 96.48,36.72 C96.346666,37.38667 96.28,38.0399968 96.28,38.68 C96.28,40.2533412 96.7199956,41.3866632 97.6,42.08 Z M106.08,14.52 C106.106667,14.0399976 106.439997,13.6200018 107.08,13.26 C107.720003,12.8999982 108.37333,12.72 109.04,12.72 C109.866671,12.72 110.266667,13.0266636 110.24,13.64 C109.786664,22.440044 108.826674,31.5199532 107.36,40.88 C107.786669,41.0933344 108,41.3733316 108,41.72 C108,42.120002 107.680003,42.5066648 107.04,42.88 L106.8,44.36 C106.693333,44.8666692 106.313337,45.2999982 105.66,45.66 C105.006663,46.0200018 104.360003,46.2 103.72,46.2 C103.319998,46.2 103.000001,46.1133342 102.76,45.94 C102.519999,45.7666658 102.44,45.5066684 102.52,45.16 C102.52,45.026666 102.533333,44.9333336 102.56,44.88 C100.853325,45.413336 99.4400056,45.68 98.32,45.68 C97.0933272,45.68 95.9866716,45.413336 95,44.88 C94.0133284,44.3733308 93.2933356,43.6400048 92.84,42.68 C92.3866644,41.7199952 92.16,40.640006 92.16,39.44 C92.16,39.0133312 92.2133328,38.4266704 92.32,37.68 C92.6933352,35.5199892 93.4933272,33.44001 94.72,31.44 C95.9466728,29.43999 97.493324,27.8000064 99.36,26.52 C101.226676,25.2399936 103.239989,24.5600004 105.4,24.48 C105.720002,20.8266484 105.946666,17.5066816 106.08,14.52 Z M147.24,14.12 C147.853336,14.2266672 148.16,14.4533316 148.16,14.8 C148.16,15.066668 147.973335,15.366665 147.6,15.7 C147.226665,16.033335 146.793336,16.3066656 146.3,16.52 C145.806664,16.7333344 145.386668,16.8133336 145.04,16.76 C143.759994,16.5733324 142.400007,16.48 140.96,16.48 C138.426654,16.48 135.53335,16.8399964 132.28,17.56 C131.293328,20.8666832 130.320005,24.4933136 129.36,28.44 C132.453349,27.7466632 135.173322,27.4 137.52,27.4 C138.18667,27.4 138.693332,27.4133332 139.04,27.44 C139.600003,27.4666668 139.88,27.7199976 139.88,28.2 C139.88,28.733336 139.593336,29.1599984 139.02,29.48 C138.446664,29.8000016 137.853336,29.9733332 137.24,30 C134.386652,30.2400012 131.546681,30.6399972 128.72,31.2 C127.946663,34.4533496 127.213337,37.9999808 126.52,41.84 C129.453348,41.706666 132.106655,41.64 134.48,41.64 C137.626682,41.64 140.519987,41.7866652 143.16,42.08 C143.720003,42.1600004 144,42.4266644 144,42.88 C144,43.1200012 143.920001,43.3866652 143.76,43.68 C143.493332,44.080002 143.086669,44.3666658 142.54,44.54 C141.993331,44.7133342 141.453336,44.7733336 140.92,44.72 C139.373326,44.586666 137.520011,44.52 135.36,44.52 C133.573324,44.52 131.773342,44.5599996 129.96,44.64 C128.146658,44.6933336 126.786671,44.72 125.88,44.72 C125.613332,45.0933352 125.16667,45.413332 124.54,45.68 C123.91333,45.946668 123.333336,46.08 122.8,46.08 C122.399998,46.08 122.093334,46.0000008 121.88,45.84 C121.666666,45.6799992 121.586666,45.4533348 121.64,45.16 C121.64,45.0799996 121.666666,44.9333344 121.72,44.72 L121.64,44.72 C120.759996,44.72 120.32,44.4933356 120.32,44.04 C120.32,43.7466652 120.506665,43.4266684 120.88,43.08 C121.253335,42.7333316 121.679998,42.4533344 122.16,42.24 C122.986671,37.7333108 123.839996,33.5666858 124.72,29.74 C125.600004,25.9133142 126.626661,22.2266844 127.8,18.68 L127.48,18.72 C127.159998,18.72 126.913334,18.6400008 126.74,18.48 C126.566666,18.3199992 126.48,18.1200012 126.48,17.88 C126.48,17.5599984 126.613332,17.2400016 126.88,16.92 C127.146668,16.5999984 127.506664,16.3600008 127.96,16.2 L128.72,15.96 L128.92,15.44 C129.053334,15.039998 129.41333,14.7000014 130,14.42 C130.58667,14.1399986 131.17333,14 131.76,14 C132.533337,14 132.96,14.2533308 133.04,14.76 C136.213349,14.0133296 139.159986,13.64 141.88,13.64 C143.693342,13.64 145.479991,13.7999984 147.24,14.12 Z M147.8,33.72 C147.346664,33.7733336 147.006668,33.733334 146.78,33.6 C146.553332,33.466666 146.44,33.266668 146.44,33 C146.44,32.599998 146.659998,32.1733356 147.1,31.72 C147.540002,31.2666644 148.013331,31.0133336 148.52,30.96 L152.52,30.44 C152.680001,28.039988 152.866666,26.1200072 153.08,24.68 C153.293334,23.2399928 153.679997,21.4133444 154.24,19.2 C154.800003,17.0133224 155.499996,15.186674 156.34,13.72 C157.180004,12.253326 158.426658,11.3600016 160.08,11.04 C160.426668,10.9599996 160.773332,10.92 161.12,10.92 C162.586674,10.92 163.593331,11.553327 164.14,12.82 C164.686669,14.086673 164.96,15.71999 164.96,17.72 C164.96,18.6000044 164.906667,19.70666 164.8,21.04 C164.746666,21.840004 164.72,22.3599988 164.72,22.6 C164.693333,23.133336 164.36667,23.5866648 163.74,23.96 C163.11333,24.3333352 162.46667,24.52 161.8,24.52 C161.399998,24.52 161.066668,24.4333342 160.8,24.26 C160.533332,24.0866658 160.4,23.8266684 160.4,23.48 C160.4,22.8933304 160.413333,22.3866688 160.44,21.96 C160.466667,21.5333312 160.493333,21.1733348 160.52,20.88 C160.6,20.0266624 160.64,19.1733376 160.64,18.32 C160.64,17.6266632 160.573334,16.8533376 160.44,16 C160.36,15.5466644 160.240001,15.1066688 160.08,14.68 L160.04,14.52 C159.319996,16.8933452 158.786668,18.7599932 158.44,20.12 C158.093332,21.4800068 157.813334,22.9466588 157.6,24.52 C157.439999,25.5600052 157.326667,26.446663 157.26,27.18 C157.193333,27.913337 157.133334,28.7999948 157.08,29.84 L158.64,29.68 C158.693334,29.6533332 158.76,29.64 158.84,29.64 L166.08,28.76 C166.240001,26.5466556 166.413332,24.8866722 166.6,23.78 C166.786668,22.6733278 167.186664,20.8933456 167.8,18.44 C168.306669,16.43999 168.986662,14.7866732 169.84,13.48 C170.693338,12.1733268 171.959992,11.3600016 173.64,11.04 C174.013335,10.9599996 174.359998,10.92 174.68,10.92 C176.146674,10.92 177.153331,11.553327 177.7,12.82 C178.246669,14.086673 178.52,15.71999 178.52,17.72 C178.52,18.6000044 178.466667,19.70666 178.36,21.04 C178.306666,21.840004 178.28,22.3599988 178.28,22.6 C178.253333,23.133336 177.92667,23.5866648 177.3,23.96 C176.67333,24.3333352 176.02667,24.52 175.36,24.52 C174.959998,24.52 174.626668,24.4333342 174.36,24.26 C174.093332,24.0866658 173.96,23.8266684 173.96,23.48 C173.96,22.8933304 173.973333,22.3866688 174,21.96 C174.026667,21.5333312 174.053333,21.1733348 174.08,20.88 C174.16,20.0266624 174.2,19.1733376 174.2,18.32 C174.2,17.6266632 174.133334,16.8533376 174,16 C173.92,15.4933308 173.800001,15.0533352 173.64,14.68 L173.6,14.52 C172.986664,15.6400056 172.506668,16.799994 172.16,18 C171.813332,19.200006 171.520001,20.7066576 171.28,22.52 L171.08,24.08 C170.866666,25.5733408 170.72,26.9333272 170.64,28.16 C172.586676,27.9466656 174.346659,27.8000004 175.92,27.72 C176.773338,27.6933332 177.2,27.9199976 177.2,28.4 C177.2,28.7733352 176.980002,29.1799978 176.54,29.62 C176.099998,30.0600022 175.640002,30.3199996 175.16,30.4 C173.559992,30.6933348 171.986674,30.9333324 170.44,31.12 L170.32,34.44 C170.079999,39.6666928 169.946667,43.1333248 169.92,44.84 C169.893333,45.373336 169.54667,45.839998 168.88,46.24 C168.21333,46.640002 167.533337,46.84 166.84,46.84 C166.413331,46.84 166.066668,46.7466676 165.8,46.56 C165.533332,46.3733324 165.4,46.0933352 165.4,45.72 C165.506667,41.1066436 165.679999,36.400024 165.92,31.6 C164.799994,31.7066672 163.293343,31.9066652 161.4,32.2 C160.546662,32.3066672 159.720004,32.4199994 158.92,32.54 C158.119996,32.6600006 157.440003,32.7466664 156.88,32.8 L156.68,37.36 C156.466666,41.8133556 156.36,44.306664 156.36,44.84 C156.333333,45.373336 155.98667,45.839998 155.32,46.24 C154.65333,46.640002 153.973337,46.84 153.28,46.84 C152.853331,46.84 152.506668,46.7466676 152.24,46.56 C151.973332,46.3733324 151.84,46.0933352 151.84,45.72 C151.893334,43.3466548 152.066665,39.2000296 152.36,33.28 L147.8,33.72 Z M190.32,24 C188.959993,25.0400052 187.853338,26.7199884 187,29.04 C189.613346,28.0533284 191.973323,27.22667 194.08,26.56 C193.199996,25.3333272 192.306671,24.5066688 191.4,24.08 C191.213332,23.9999996 191.033334,23.9466668 190.86,23.92 C190.686666,23.8933332 190.586667,23.88 190.56,23.88 C190.586667,23.9066668 190.566667,23.9333332 190.5,23.96 C190.433333,23.9866668 190.373334,24 190.32,24 Z M190.48,21.16 C190.906669,21.0533328 191.359998,21 191.84,21 C194.400013,21 196.71999,22.7199828 198.8,26.16 C198.88,26.2666672 198.92,26.3999992 198.92,26.56 C198.92,26.8533348 198.733335,27.1599984 198.36,27.48 C198.066665,27.8000016 197.693336,28.0533324 197.24,28.24 C194.57332,29.4133392 190.86669,30.8133252 186.12,32.44 C185.853332,33.8000068 185.72,35.1999928 185.72,36.64 C185.72,37.30667 185.733333,37.7866652 185.76,38.08 C185.813334,39.280006 186.053331,40.3199956 186.48,41.2 C186.613334,41.4933348 186.806665,41.773332 187.06,42.04 C187.313335,42.306668 187.506666,42.4799996 187.64,42.56 C187.72,42.6133336 187.853332,42.64 188.04,42.64 C188.226668,42.64 188.446665,42.5866672 188.7,42.48 C188.953335,42.3733328 189.239998,42.2266676 189.56,42.04 C190.333337,41.5866644 191.05333,41.0666696 191.72,40.48 C192.38667,39.8933304 193.186662,39.133338 194.12,38.2 C194.493335,37.8266648 195.119996,37.64 196,37.64 C196.480002,37.64 196.886665,37.7133326 197.22,37.86 C197.553335,38.0066674 197.72,38.213332 197.72,38.48 C197.72,38.7200012 197.586668,38.9866652 197.32,39.28 C195.666658,41.0666756 193.973342,42.5866604 192.24,43.84 C190.506658,45.0933396 188.773342,45.72 187.04,45.72 C186.213329,45.72 185.440004,45.5466684 184.72,45.2 C183.519994,44.6399972 182.653336,43.7466728 182.12,42.52 C181.586664,41.2933272 181.32,39.8533416 181.32,38.2 C181.32,36.9733272 181.479998,35.5333416 181.8,33.88 L181.48,33.96 L181.16,34.08 C180.759998,34.213334 180.440001,34.28 180.2,34.28 C179.826665,34.28 179.533334,34.1866676 179.32,34 C179.106666,33.8133324 179,33.5733348 179,33.28 C179,32.9333316 179.139999,32.593335 179.42,32.26 C179.700001,31.926665 180.119997,31.6533344 180.68,31.44 L182.64,30.68 C182.880001,29.9333296 183.239998,28.960006 183.72,27.76 C184.46667,26.1066584 185.399994,24.680006 186.52,23.48 C187.640006,22.279994 188.959992,21.5066684 190.48,21.16 Z M214.12,19.44 C214.253334,19.0666648 214.599997,18.7400014 215.16,18.46 C215.720003,18.1799986 216.279997,18.04 216.84,18.04 C217.640004,18.04 218.04,18.3199972 218.04,18.88 C218.04,18.9600004 218.013334,19.1066656 217.96,19.32 C216.813328,23.2133528 215.800004,26.1866564 214.92,28.24 C214.759999,28.640002 214.393336,28.9799986 213.82,29.26 C213.246664,29.5400014 212.680003,29.68 212.12,29.68 C211.45333,29.68 211.066667,29.4533356 210.96,29 C210.479998,26.866656 209.733338,25.8 208.72,25.8 C208.239998,25.8 207.70667,26.0533308 207.12,26.56 C205.839994,27.7333392 204.833337,29.31999 204.1,31.32 C203.366663,33.32001 203,35.2266576 203,37.04 C203,38.37334 203.226664,39.5666614 203.68,40.62 C204.133336,41.6733386 204.893328,42.333332 205.96,42.6 C206.120001,42.6533336 206.373332,42.68 206.72,42.68 C207.600004,42.68 208.473329,42.3533366 209.34,41.7 C210.206671,41.0466634 210.919997,40.3666702 211.48,39.66 C212.040003,38.9533298 212.759996,37.9866728 213.64,36.76 C213.853334,36.4666652 214.186664,36.2333342 214.64,36.06 C215.093336,35.8866658 215.546664,35.8 216,35.8 C216.426669,35.8 216.766665,35.8733326 217.02,36.02 C217.273335,36.1666674 217.4,36.3866652 217.4,36.68 C217.4,36.946668 217.306668,37.2266652 217.12,37.52 C215.70666,39.7333444 213.986677,41.6466586 211.96,43.26 C209.933323,44.8733414 207.800011,45.68 205.56,45.68 C205.106664,45.68 204.653336,45.6400004 204.2,45.56 C202.413324,45.2666652 201.080004,44.3933406 200.2,42.94 C199.319996,41.4866594 198.88,39.8000096 198.88,37.88 C198.88,37.1866632 198.946666,36.440004 199.08,35.64 C199.506669,33.0799872 200.359994,30.6866778 201.64,28.46 C202.920006,26.2333222 204.59999,24.6000052 206.68,23.56 C207.720005,23.0533308 208.759995,22.8 209.8,22.8 C210.786672,22.8 211.693329,23.066664 212.52,23.6 L214.12,19.44 Z M232.36,36.64 C232.546668,36.4533324 232.839998,36.3066672 233.24,36.2 C233.640002,36.0933328 234.039998,36.04 234.44,36.04 C235.426672,36.04 235.92,36.2933308 235.92,36.8 C235.92,37.0400012 235.786668,37.3066652 235.52,37.6 C235.199998,37.9733352 234.906668,38.326665 234.64,38.66 L233.92,39.56 C232.746661,41.0800076 231.693338,42.2866622 230.76,43.18 C229.826662,44.0733378 228.73334,44.719998 227.48,45.12 C226.89333,45.3066676 226.26667,45.4 225.6,45.4 C224.479994,45.4 223.526671,45.0800032 222.74,44.44 C221.953329,43.7999968 221.493334,42.8666728 221.36,41.64 C221.306666,41.2933316 221.28,40.7600036 221.28,40.04 C221.28,38.6533264 221.439998,37.2400072 221.76,35.8 C222.080002,34.3599928 222.546664,32.5600108 223.16,30.4 L223.64,28.68 L222.12,28.84 C221.37333,28.8933336 220.360006,28.9999992 219.08,29.16 C218.466664,29.2400004 218.000002,29.1733344 217.68,28.96 C217.359998,28.7466656 217.2,28.4666684 217.2,28.12 C217.2,27.719998 217.393331,27.3266686 217.78,26.94 C218.166669,26.5533314 218.666664,26.3333336 219.28,26.28 L224.44,25.68 C225.613339,21.3599784 226.933326,17.1200208 228.4,12.96 C228.533334,12.5866648 228.899997,12.2600014 229.5,11.98 C230.100003,11.6999986 230.679997,11.56 231.24,11.56 C231.586668,11.56 231.873332,11.626666 232.1,11.76 C232.326668,11.893334 232.44,12.093332 232.44,12.36 C232.44,12.4400004 232.413334,12.5866656 232.36,12.8 C230.813326,17.1466884 229.520005,21.2933136 228.48,25.24 C230.346676,25.0533324 231.586664,24.96 232.2,24.96 C232.973337,24.96 233.36,25.1866644 233.36,25.64 C233.36,26.0133352 233.133336,26.4199978 232.68,26.86 C232.226664,27.3000022 231.760002,27.5733328 231.28,27.68 C229.679992,27.946668 228.480004,28.1333328 227.68,28.24 C227.226664,30.0533424 226.826668,31.826658 226.48,33.56 C226.426666,33.7733344 226.240002,34.5533266 225.92,35.9 C225.599998,37.2466734 225.44,38.5066608 225.44,39.68 C225.44,41.2000076 225.839996,42.026666 226.64,42.16 C227.146669,42.2400004 227.726663,41.9533366 228.38,41.3 C229.033337,40.6466634 229.879995,39.6666732 230.92,38.36 C231.560003,37.5333292 232.039998,36.9600016 232.36,36.64 Z M243.04,26.6 C243.04,27.6133384 243.299997,28.5066628 243.82,29.28 C244.340003,30.0533372 244.97333,30.706664 245.72,31.24 C246.46667,31.773336 247.479994,32.3999964 248.76,33.12 C250.493342,34.1066716 251.819995,34.999996 252.74,35.8 C253.660005,36.600004 254.266665,37.599994 254.56,38.8 C254.666667,39.333336 254.72,39.7199988 254.72,39.96 C254.72,41.826676 253.733343,43.1666626 251.76,43.98 C249.786657,44.7933374 247.546679,45.2 245.04,45.2 C244.053328,45.2 243.18667,45.133334 242.44,45 C241.559996,44.8399992 240.646671,44.526669 239.7,44.06 C238.753329,43.593331 237.96667,43.0200034 237.34,42.34 C236.71333,41.6599966 236.4,40.9600036 236.4,40.24 C236.4,39.1199944 237.266658,38.093338 239,37.16 C239.480002,36.9199988 239.946664,36.8 240.4,36.8 C240.826669,36.8 241.179999,36.8933324 241.46,37.08 C241.740001,37.2666676 241.88,37.493332 241.88,37.76 C241.88,38.2400024 241.493337,38.7066644 240.72,39.16 C240.559999,39.2400004 240.48,39.3599992 240.48,39.52 C240.48,39.8400016 240.733331,40.2266644 241.24,40.68 C241.746669,41.1333356 242.146665,41.4399992 242.44,41.6 C243.240004,42.0533356 244.519991,42.3333328 246.28,42.44 C246.493334,42.4666668 246.866664,42.48 247.4,42.48 C248.360005,42.48 249.13333,42.3200016 249.72,42 C250.30667,41.6799984 250.56,41.0933376 250.48,40.24 C250.373333,39.0933276 249.213344,37.8000072 247,36.36 L245.48,35.4 C244.093326,34.5466624 242.953338,33.7933366 242.06,33.14 C241.166662,32.4866634 240.400003,31.7000046 239.76,30.78 C239.119997,29.8599954 238.8,28.8266724 238.8,27.68 C238.8,26.9599964 238.933332,26.2400036 239.2,25.52 C239.78667,23.786658 240.879992,22.4466714 242.48,21.5 C244.080008,20.5533286 245.799991,20.08 247.64,20.08 C249.533343,20.08 251.12666,20.5599952 252.42,21.52 C253.71334,22.4800048 254.36,23.8399912 254.36,25.6 C254.36,26.1600028 254.280001,26.7599968 254.12,27.4 C254.013333,27.8800024 253.613337,28.2933316 252.92,28.64 C252.226663,28.9866684 251.573336,29.16 250.96,29.16 C250.586665,29.16 250.300001,29.0800008 250.1,28.92 C249.899999,28.7599992 249.853333,28.5333348 249.96,28.24 C250.120001,27.6799972 250.2,27.1200028 250.2,26.56 C250.2,25.6799956 249.973336,24.9333364 249.52,24.32 C249.066664,23.7066636 248.400004,23.2800012 247.52,23.04 C247.039998,22.9333328 246.680001,22.88 246.44,22.88 C245.479995,22.88 244.673337,23.2199966 244.02,23.9 C243.366663,24.5800034 243.04,25.4799944 243.04,26.6 Z M277.84,10.12 C279.306674,10.12 280.313331,10.7466604 280.86,12 C281.406669,13.2533396 281.68,14.8933232 281.68,16.92 C281.68,17.1600012 281.64,18.3199896 281.56,20.4 C281.506666,21.0933368 281.48,21.5599988 281.48,21.8 C281.453333,22.333336 281.12667,22.7866648 280.5,23.16 C279.87333,23.5333352 279.22667,23.72 278.56,23.72 C277.626662,23.72 277.16,23.3466704 277.16,22.6 C277.16,22.1733312 277.186666,21.4800048 277.24,20.52 C277.32,19.586662 277.36,18.6666712 277.36,17.76 C277.36,16.7999952 277.306667,15.9466704 277.2,15.2 C277.146666,14.9866656 277.08,14.746668 277,14.48 C276.92,14.213332 276.866667,14.013334 276.84,13.88 L276.8,13.72 L276.48,14.8 C275.89333,16.8266768 275.440002,18.4666604 275.12,19.72 C274.799998,20.9733396 274.546668,22.3066596 274.36,23.72 C274.199999,24.7600052 274.086667,25.646663 274.02,26.38 C273.953333,27.113337 273.893334,27.9999948 273.84,29.04 C275.786676,28.8266656 277.546659,28.6800004 279.12,28.6 C279.973338,28.5733332 280.4,28.7999976 280.4,29.28 C280.4,29.6533352 280.180002,30.0599978 279.74,30.5 C279.299998,30.9400022 278.840002,31.1999996 278.36,31.28 C276.759992,31.5733348 275.186674,31.8133324 273.64,32 L273.44,36.56 C273.226666,41.0133556 273.12,43.506664 273.12,44.04 C273.093333,44.573336 272.740003,45.039998 272.06,45.44 C271.379997,45.840002 270.693337,46.04 270,46.04 C269.599998,46.04 269.266668,45.9533342 269,45.78 C268.733332,45.6066658 268.6,45.3466684 268.6,45 C268.6,42.733322 268.733332,39.4133552 269,35.04 L269.12,32.48 L264.56,32.92 C264.106664,32.9733336 263.766668,32.933334 263.54,32.8 C263.313332,32.666666 263.2,32.466668 263.2,32.2 C263.2,31.799998 263.419998,31.3733356 263.86,30.92 C264.300002,30.4666644 264.773331,30.2133336 265.28,30.16 L269.28,29.64 C269.440001,27.3199884 269.633332,25.4333406 269.86,23.98 C270.086668,22.5266594 270.466664,20.666678 271,18.4 C271.400002,16.8533256 271.839998,15.5000058 272.32,14.34 C272.800002,13.1799942 273.493329,12.1866708 274.4,11.36 C275.306671,10.5333292 276.453326,10.12 277.84,10.12 Z M295.04,31.56 C295.04,28.7333192 293.386683,26.5066748 290.08,24.88 C289.253329,25.5733368 288.426671,26.4933276 287.6,27.64 C286.586662,29.106674 285.74667,30.7466576 285.08,32.56 C284.813332,33.2800036 284.560001,34.2599938 284.32,35.5 C284.079999,36.7400062 283.96,37.893328 283.96,38.96 C283.96,40.0533388 284.113332,40.9266634 284.42,41.58 C284.726668,42.2333366 285.226663,42.56 285.92,42.56 C286.480003,42.56 287.13333,42.3333356 287.88,41.88 C289.933344,40.679994 291.639993,39.1866756 293,37.4 C294.360007,35.6133244 295.04,33.6666772 295.04,31.56 Z M296.16,24.32 C297.120005,25.2266712 297.859997,26.2533276 298.38,27.4 C298.900003,28.5466724 299.16,29.7599936 299.16,31.04 C299.16,32.8800092 298.626672,34.7466572 297.56,36.64 C296.839996,37.9200064 295.786674,39.2666596 294.4,40.68 C293.013326,42.0933404 291.473342,43.2866618 289.78,44.26 C288.086658,45.2333382 286.466674,45.72 284.92,45.72 C283.959995,45.72 283.053338,45.5066688 282.2,45.08 C280.386658,44.0933284 279.48,42.3200128 279.48,39.76 C279.48,37.92 279.893329,35.900011 280.72,33.7 C281.546671,31.499989 282.426662,29.6400076 283.36,28.12 C285.626678,24.519982 288.013321,22.253338 290.52,21.32 C291.213337,21.053332 291.959996,20.92 292.76,20.92 C293.693338,20.92 294.479997,21.153331 295.12,21.62 C295.760003,22.086669 296.133333,22.8133284 296.24,23.8 L296.24,23.96 C296.24,24.0400004 296.213334,24.1599992 296.16,24.32 Z M310.96,20.6 C311.733337,20.2799984 312.439997,20.12 313.08,20.12 C313.773337,20.12 314.333331,20.2999982 314.76,20.66 C315.186669,21.0200018 315.4,21.599996 315.4,22.4 C315.4,23.1733372 315.280001,24.0133288 315.04,24.92 C314.799999,25.8266712 314.466669,26.8933272 314.04,28.12 L313.48,29.8 C313.319999,30.3066692 312.90667,30.7333316 312.24,31.08 C311.57333,31.4266684 310.933336,31.6 310.32,31.6 C309.919998,31.6 309.620001,31.5133342 309.42,31.34 C309.219999,31.1666658 309.173333,30.9066684 309.28,30.56 C309.760002,29.0666592 310.239998,27.4133424 310.72,25.6 C310.826667,24.7733292 310.906666,24.226668 310.96,23.96 L310.8,24.12 C308.746656,25.8800088 306.866675,28.09332 305.16,30.76 C304.386663,35.0000212 303.906668,39.253312 303.72,43.52 C303.693333,44.0266692 303.353337,44.4733314 302.7,44.86 C302.046663,45.2466686 301.373337,45.44 300.68,45.44 C300.279998,45.44 299.946668,45.3466676 299.68,45.16 C299.413332,44.9733324 299.293333,44.6933352 299.32,44.32 C299.533334,40.4799808 299.946664,36.7466848 300.56,33.12 C300.293332,32.9333324 300.16,32.7200012 300.16,32.48 C300.16,32.3199992 300.213333,32.1466676 300.32,31.96 L300.92,30.96 C301.50667,27.893318 302.226662,24.8133488 303.08,21.72 C303.213334,21.2399976 303.63333,20.8200018 304.34,20.46 C305.04667,20.0999982 305.719997,19.92 306.36,19.92 C306.760002,19.92 307.066666,19.9999992 307.28,20.16 C307.493334,20.3200008 307.546667,20.5599984 307.44,20.88 C307.013331,22.3733408 306.746667,23.3599976 306.64,23.84 C308.240008,22.239992 309.679994,21.1600028 310.96,20.6 Z M342.08,13.92 C342.213334,13.4933312 342.626663,13.113335 343.32,12.78 C344.013337,12.446665 344.666664,12.28 345.28,12.28 C345.626668,12.28 345.886666,12.346666 346.06,12.48 C346.233334,12.613334 346.28,12.7999988 346.2,13.04 L343.88,21.16 C343.746666,21.6133356 343.340003,22.0133316 342.66,22.36 C341.979997,22.7066684 341.333336,22.88 340.72,22.88 C340.373332,22.88 340.113334,22.8066674 339.94,22.66 C339.766666,22.5133326 339.706666,22.2933348 339.76,22 C339.946668,21.066662 340.04,20.2266704 340.04,19.48 C340.04,17.9599924 339.693337,17.133334 339,17 C338.706665,16.9199996 338.326669,17.1933302 337.86,17.82 C337.393331,18.4466698 336.86667,19.2133288 336.28,20.12 C334.253323,23.053348 332.680006,26.4933136 331.56,30.44 C331.186665,31.8000068 330.893334,33.013328 330.68,34.08 C330.466666,35.146672 330.36,36.1999948 330.36,37.24 C330.36,38.306672 330.493332,39.2533292 330.76,40.08 C331.026668,40.9333376 331.466664,41.6866634 332.08,42.34 C332.693336,42.9933366 333.399996,43.32 334.2,43.32 C334.973337,43.32 335.719996,43.053336 336.44,42.52 C337.160004,41.986664 337.919996,41.2800044 338.72,40.4 L338.48,40 C338.4,39.866666 338.36,39.7466672 338.36,39.64 C338.36,39.239998 338.679997,38.8600018 339.32,38.5 C339.960003,38.1399982 340.599997,37.96 341.24,37.96 C341.853336,37.96 342.293332,38.1466648 342.56,38.52 L343.08,39.32 C343.106667,39.3733336 343.12,39.4533328 343.12,39.56 C343.12,39.693334 343.08,39.8333326 343,39.98 C342.92,40.1266674 342.84,40.2533328 342.76,40.36 C341.50666,41.960008 339.980009,43.3466608 338.18,44.52 C336.379991,45.6933392 334.600009,46.28 332.84,46.28 C331.479993,46.28 330.226672,45.880004 329.08,45.08 C327.106657,43.6666596 326.12,41.426682 326.12,38.36 C326.12,36.4666572 326.533329,34.053348 327.36,31.12 C328.266671,27.8399836 329.493326,24.7533478 331.04,21.86 C332.586674,18.9666522 334.466656,16.8000072 336.68,15.36 C337.93334,14.5333292 339.146661,14.12 340.32,14.12 C340.853336,14.12 341.386664,14.2399988 341.92,14.48 L342.08,13.92 Z M360.56,31.56 C360.56,28.7333192 358.906683,26.5066748 355.6,24.88 C354.773329,25.5733368 353.946671,26.4933276 353.12,27.64 C352.106662,29.106674 351.26667,30.7466576 350.6,32.56 C350.333332,33.2800036 350.080001,34.2599938 349.84,35.5 C349.599999,36.7400062 349.48,37.893328 349.48,38.96 C349.48,40.0533388 349.633332,40.9266634 349.94,41.58 C350.246668,42.2333366 350.746663,42.56 351.44,42.56 C352.000003,42.56 352.65333,42.3333356 353.4,41.88 C355.453344,40.679994 357.159993,39.1866756 358.52,37.4 C359.880007,35.6133244 360.56,33.6666772 360.56,31.56 Z M361.68,24.32 C362.640005,25.2266712 363.379997,26.2533276 363.9,27.4 C364.420003,28.5466724 364.68,29.7599936 364.68,31.04 C364.68,32.8800092 364.146672,34.7466572 363.08,36.64 C362.359996,37.9200064 361.306674,39.2666596 359.92,40.68 C358.533326,42.0933404 356.993342,43.2866618 355.3,44.26 C353.606658,45.2333382 351.986674,45.72 350.44,45.72 C349.479995,45.72 348.573338,45.5066688 347.72,45.08 C345.906658,44.0933284 345,42.3200128 345,39.76 C345,37.92 345.413329,35.900011 346.24,33.7 C347.066671,31.499989 347.946662,29.6400076 348.88,28.12 C351.146678,24.519982 353.533321,22.253338 356.04,21.32 C356.733337,21.053332 357.479996,20.92 358.28,20.92 C359.213338,20.92 359.999997,21.153331 360.64,21.62 C361.280003,22.086669 361.653333,22.8133284 361.76,23.8 L361.76,23.96 C361.76,24.0400004 361.733334,24.1599992 361.68,24.32 Z M387.8,20.92 C387.666666,23.720014 387.6,26.2266556 387.6,28.44 C387.6,33.9333608 387.97333,38.8266452 388.72,43.12 C388.826667,43.7333364 388.58667,44.2599978 388,44.7 C387.41333,45.1400022 386.773337,45.36 386.08,45.36 C385.679998,45.36 385.346668,45.2666676 385.08,45.08 C384.813332,44.8933324 384.653334,44.6133352 384.6,44.24 C383.906663,39.0666408 383.506667,34.2400224 383.4,29.76 C382.119994,32.8000152 380.586676,37.0666392 378.8,42.56 C378.773333,42.6666672 378.693334,42.8133324 378.56,43 C378.319999,43.3200016 377.960002,43.5733324 377.48,43.76 C376.999998,43.9466676 376.520002,44.04 376.04,44.04 C375.666665,44.04 375.373334,43.9866672 375.16,43.88 C374.813332,43.6933324 374.64,43.4400016 374.64,43.12 C374.64,43.0399996 374.666666,42.8933344 374.72,42.68 C374.746667,42.3866652 374.76,41.9600028 374.76,41.4 C374.76,40.466662 374.680001,39.1200088 374.52,37.36 L374.36,35.2 C374.253333,32.5866536 374.16,30.6266732 374.08,29.32 C372.799994,31.6666784 371.78667,33.3999944 371.04,34.52 C370.399997,37.9066836 369.333341,41.1866508 367.84,44.36 C367.653332,44.7333352 367.253336,45.053332 366.64,45.32 C366.026664,45.586668 365.42667,45.72 364.84,45.72 C364.466665,45.72 364.166668,45.653334 363.94,45.52 C363.713332,45.386666 363.6,45.2000012 363.6,44.96 C363.6,44.7999992 363.64,44.6266676 363.72,44.44 C364.946673,41.77332 365.879997,39.040014 366.52,36.24 C366.413333,36.1333328 366.36,35.9866676 366.36,35.8 C366.36,35.533332 366.466666,35.2533348 366.68,34.96 L366.84,34.68 C367.266669,32.546656 367.48,30.280012 367.48,27.88 C367.48,26.8666616 367.44,25.8666716 367.36,24.88 C367.333333,24.4266644 367.639997,24.0133352 368.28,23.64 C368.920003,23.2666648 369.57333,23.08 370.24,23.08 C370.613335,23.08 370.919999,23.1599992 371.16,23.32 C371.400001,23.4800008 371.533333,23.7066652 371.56,24 C371.613334,24.4800024 371.666666,25.253328 371.72,26.32 C372.333336,25.1999944 372.986663,24.1466716 373.68,23.16 C373.733334,22.7066644 374.05333,22.313335 374.64,21.98 C375.22667,21.646665 375.839997,21.48 376.48,21.48 C376.880002,21.48 377.219999,21.5666658 377.5,21.74 C377.780001,21.9133342 377.933333,22.1866648 377.96,22.56 C378.226668,26.0000172 378.413333,29.0666532 378.52,31.76 C380.306676,27.3866448 382.079991,23.7733476 383.84,20.92 C384.026668,20.6266652 384.386664,20.3600012 384.92,20.12 C385.453336,19.8799988 385.973331,19.76 386.48,19.76 C386.880002,19.76 387.206665,19.8533324 387.46,20.04 C387.713335,20.2266676 387.826667,20.519998 387.8,20.92 Z M402.36,35.32 C402.466667,34.8666644 402.52,34.3333364 402.52,33.72 C402.52,31.586656 401.720008,29.5066768 400.12,27.48 C399.213329,26.3066608 398.253338,25.3600036 397.24,24.64 C396.439996,29.6266916 395.813336,33.653318 395.36,36.72 C395.146666,37.9733396 394.853335,39.8533208 394.48,42.36 C395.280004,42.7333352 396.01333,42.92 396.68,42.92 C397.800006,42.92 398.813329,42.3733388 399.72,41.28 C400.38667,40.479996 400.946664,39.5600052 401.4,38.52 C401.853336,37.4799948 402.173332,36.4133388 402.36,35.32 Z M397.68,20.76 C399.333342,21.3200028 400.82666,22.2599934 402.16,23.58 C403.49334,24.9000066 404.539996,26.4333246 405.3,28.18 C406.060004,29.9266754 406.44,31.666658 406.44,33.4 C406.44,34.333338 406.320001,35.2399956 406.08,36.12 C405.573331,37.9600092 404.806672,39.6066594 403.78,41.06 C402.753328,42.5133406 401.526674,43.6599958 400.1,44.5 C398.673326,45.3400042 397.146675,45.76 395.52,45.76 C395.013331,45.76 394.493336,45.7200004 393.96,45.64 C392.893328,52.4667008 391.933338,58.0399784 391.08,62.36 C390.973333,62.8666692 390.600003,63.2933316 389.96,63.64 C389.319997,63.9866684 388.66667,64.16 388,64.16 C387.546664,64.16 387.193335,64.0666676 386.94,63.88 C386.686665,63.6933324 386.6,63.4133352 386.68,63.04 C387.986673,56.4266336 389.133328,50.12003 390.12,44.12 L390.04,44.08 C389.693332,43.8399988 389.52,43.5733348 389.52,43.28 C389.52,42.8266644 389.839997,42.400002 390.48,42 C391.333338,37.066642 392.293328,30.733372 393.36,23 L392.84,23.04 L392.4,23.08 C391.946664,23.08 391.613334,23.0000008 391.4,22.84 C391.186666,22.6799992 391.08,22.4800012 391.08,22.24 C391.08,21.839998 391.279998,21.4533352 391.68,21.08 C392.080002,20.7066648 392.57333,20.4666672 393.16,20.36 C393.640002,20.2799996 394.119998,20.24 394.6,20.24 C394.946668,20.24 395.41333,20.2666664 396,20.32 C396.853338,20.2133328 397.413332,20.359998 397.68,20.76 Z M422.04,31.56 C422.04,28.7333192 420.386683,26.5066748 417.08,24.88 C416.253329,25.5733368 415.426671,26.4933276 414.6,27.64 C413.586662,29.106674 412.74667,30.7466576 412.08,32.56 C411.813332,33.2800036 411.560001,34.2599938 411.32,35.5 C411.079999,36.7400062 410.96,37.893328 410.96,38.96 C410.96,40.0533388 411.113332,40.9266634 411.42,41.58 C411.726668,42.2333366 412.226663,42.56 412.92,42.56 C413.480003,42.56 414.13333,42.3333356 414.88,41.88 C416.933344,40.679994 418.639993,39.1866756 420,37.4 C421.360007,35.6133244 422.04,33.6666772 422.04,31.56 Z M423.16,24.32 C424.120005,25.2266712 424.859997,26.2533276 425.38,27.4 C425.900003,28.5466724 426.16,29.7599936 426.16,31.04 C426.16,32.8800092 425.626672,34.7466572 424.56,36.64 C423.839996,37.9200064 422.786674,39.2666596 421.4,40.68 C420.013326,42.0933404 418.473342,43.2866618 416.78,44.26 C415.086658,45.2333382 413.466674,45.72 411.92,45.72 C410.959995,45.72 410.053338,45.5066688 409.2,45.08 C407.386658,44.0933284 406.48,42.3200128 406.48,39.76 C406.48,37.92 406.893329,35.900011 407.72,33.7 C408.546671,31.499989 409.426662,29.6400076 410.36,28.12 C412.626678,24.519982 415.013321,22.253338 417.52,21.32 C418.213337,21.053332 418.959996,20.92 419.76,20.92 C420.693338,20.92 421.479997,21.153331 422.12,21.62 C422.760003,22.086669 423.133333,22.8133284 423.24,23.8 L423.24,23.96 C423.24,24.0400004 423.213334,24.1599992 423.16,24.32 Z M442.64,21.12 C443.706672,21.7066696 444.24,22.9466572 444.24,24.84 C444.24,25.5333368 444.173334,26.2999958 444.04,27.14 C443.906666,27.9800042 443.760001,28.7733296 443.6,29.52 L443.32,31.12 L441.64,43.56 C442.173336,43.693334 442.4,44.026664 442.32,44.56 C442.026665,46.026674 440.986676,46.959998 439.2,47.36 L438.8,47.4 C438.346664,47.4 437.946668,47.3066676 437.6,47.12 C437.253332,46.9333324 437.106666,46.640002 437.16,46.24 C438.280006,38.1332928 439.106664,32.0533536 439.64,28 C439.666667,27.8933328 439.726666,27.5866692 439.82,27.08 C439.913334,26.5733308 439.96,26.0933356 439.96,25.64 C439.96,24.7866624 439.733336,24.3466668 439.28,24.32 C438.933332,24.2666664 438.366671,24.739995 437.58,25.74 C436.793329,26.740005 436.36,27.2933328 436.28,27.4 C434.679992,29.2133424 433.186674,31.2399888 431.8,33.48 C431.159997,37.3733528 430.653335,40.519988 430.28,42.92 L430.08,44.2 C430,44.7066692 429.62667,45.1466648 428.96,45.52 C428.29333,45.8933352 427.640003,46.08 427,46.08 C426.599998,46.08 426.286668,45.9933342 426.06,45.82 C425.833332,45.6466658 425.746666,45.3866684 425.8,45.04 C426.493337,40.9599796 427.039998,37.6266796 427.44,35.04 C427.279999,34.8799992 427.2,34.6933344 427.2,34.48 C427.2,34.346666 427.24,34.2000008 427.32,34.04 C427.4,33.906666 427.473333,33.7866672 427.54,33.68 C427.606667,33.5733328 427.666666,33.4800004 427.72,33.4 L429.32,23.72 C429.4,23.2399976 429.759997,22.8266684 430.4,22.48 C431.040003,22.1333316 431.679997,21.96 432.32,21.96 C432.720002,21.96 433.026666,22.0399992 433.24,22.2 C433.453334,22.3600008 433.533334,22.5999984 433.48,22.92 C433.346666,23.8000044 433.160001,24.9333264 432.92,26.32 L434.6,24.52 C435.720006,23.3999944 436.786662,22.4800036 437.8,21.76 C438.813338,21.0399964 439.839995,20.68 440.88,20.68 C441.54667,20.68 442.133331,20.8266652 442.64,21.12 Z M457.16,24 C455.799993,25.0400052 454.693338,26.7199884 453.84,29.04 C456.453346,28.0533284 458.813323,27.22667 460.92,26.56 C460.039996,25.3333272 459.146671,24.5066688 458.24,24.08 C458.053332,23.9999996 457.873334,23.9466668 457.7,23.92 C457.526666,23.8933332 457.426667,23.88 457.4,23.88 C457.426667,23.9066668 457.406667,23.9333332 457.34,23.96 C457.273333,23.9866668 457.213334,24 457.16,24 Z M457.32,21.16 C457.746669,21.0533328 458.199998,21 458.68,21 C461.240013,21 463.55999,22.7199828 465.64,26.16 C465.72,26.2666672 465.76,26.3999992 465.76,26.56 C465.76,26.8533348 465.573335,27.1599984 465.2,27.48 C464.906665,27.8000016 464.533336,28.0533324 464.08,28.24 C461.41332,29.4133392 457.70669,30.8133252 452.96,32.44 C452.693332,33.8000068 452.56,35.1999928 452.56,36.64 C452.56,37.30667 452.573333,37.7866652 452.6,38.08 C452.653334,39.280006 452.893331,40.3199956 453.32,41.2 C453.453334,41.4933348 453.646665,41.773332 453.9,42.04 C454.153335,42.306668 454.346666,42.4799996 454.48,42.56 C454.56,42.6133336 454.693332,42.64 454.88,42.64 C455.066668,42.64 455.286665,42.5866672 455.54,42.48 C455.793335,42.3733328 456.079998,42.2266676 456.4,42.04 C457.173337,41.5866644 457.89333,41.0666696 458.56,40.48 C459.22667,39.8933304 460.026662,39.133338 460.96,38.2 C461.333335,37.8266648 461.959996,37.64 462.84,37.64 C463.320002,37.64 463.726665,37.7133326 464.06,37.86 C464.393335,38.0066674 464.56,38.213332 464.56,38.48 C464.56,38.7200012 464.426668,38.9866652 464.16,39.28 C462.506658,41.0666756 460.813342,42.5866604 459.08,43.84 C457.346658,45.0933396 455.613342,45.72 453.88,45.72 C453.053329,45.72 452.280004,45.5466684 451.56,45.2 C450.359994,44.6399972 449.493336,43.7466728 448.96,42.52 C448.426664,41.2933272 448.16,39.8533416 448.16,38.2 C448.16,36.9733272 448.319998,35.5333416 448.64,33.88 L448.32,33.96 L448,34.08 C447.599998,34.213334 447.280001,34.28 447.04,34.28 C446.666665,34.28 446.373334,34.1866676 446.16,34 C445.946666,33.8133324 445.84,33.5733348 445.84,33.28 C445.84,32.9333316 445.979999,32.593335 446.26,32.26 C446.540001,31.926665 446.959997,31.6533344 447.52,31.44 L449.48,30.68 C449.720001,29.9333296 450.079998,28.960006 450.56,27.76 C451.30667,26.1066584 452.239994,24.680006 453.36,23.48 C454.480006,22.279994 455.799992,21.5066684 457.32,21.16 Z M482.36,21.12 C483.426672,21.7066696 483.96,22.9466572 483.96,24.84 C483.96,25.5333368 483.893334,26.2999958 483.76,27.14 C483.626666,27.9800042 483.480001,28.7733296 483.32,29.52 L483.04,31.12 L481.36,43.56 C481.893336,43.693334 482.12,44.026664 482.04,44.56 C481.746665,46.026674 480.706676,46.959998 478.92,47.36 L478.52,47.4 C478.066664,47.4 477.666668,47.3066676 477.32,47.12 C476.973332,46.9333324 476.826666,46.640002 476.88,46.24 C478.000006,38.1332928 478.826664,32.0533536 479.36,28 C479.386667,27.8933328 479.446666,27.5866692 479.54,27.08 C479.633334,26.5733308 479.68,26.0933356 479.68,25.64 C479.68,24.7866624 479.453336,24.3466668 479,24.32 C478.653332,24.2666664 478.086671,24.739995 477.3,25.74 C476.513329,26.740005 476.08,27.2933328 476,27.4 C474.399992,29.2133424 472.906674,31.2399888 471.52,33.48 C470.879997,37.3733528 470.373335,40.519988 470,42.92 L469.8,44.2 C469.72,44.7066692 469.34667,45.1466648 468.68,45.52 C468.01333,45.8933352 467.360003,46.08 466.72,46.08 C466.319998,46.08 466.006668,45.9933342 465.78,45.82 C465.553332,45.6466658 465.466666,45.3866684 465.52,45.04 C466.213337,40.9599796 466.759998,37.6266796 467.16,35.04 C466.999999,34.8799992 466.92,34.6933344 466.92,34.48 C466.92,34.346666 466.96,34.2000008 467.04,34.04 C467.12,33.906666 467.193333,33.7866672 467.26,33.68 C467.326667,33.5733328 467.386666,33.4800004 467.44,33.4 L469.04,23.72 C469.12,23.2399976 469.479997,22.8266684 470.12,22.48 C470.760003,22.1333316 471.399997,21.96 472.04,21.96 C472.440002,21.96 472.746666,22.0399992 472.96,22.2 C473.173334,22.3600008 473.253334,22.5999984 473.2,22.92 C473.066666,23.8000044 472.880001,24.9333264 472.64,26.32 L474.32,24.52 C475.440006,23.3999944 476.506662,22.4800036 477.52,21.76 C478.533338,21.0399964 479.559995,20.68 480.6,20.68 C481.26667,20.68 481.853331,20.8266652 482.36,21.12 Z M500.28,36.64 C500.466668,36.4533324 500.759998,36.3066672 501.16,36.2 C501.560002,36.0933328 501.959998,36.04 502.36,36.04 C503.346672,36.04 503.84,36.2933308 503.84,36.8 C503.84,37.0400012 503.706668,37.3066652 503.44,37.6 C503.119998,37.9733352 502.826668,38.326665 502.56,38.66 L501.84,39.56 C500.666661,41.0800076 499.613338,42.2866622 498.68,43.18 C497.746662,44.0733378 496.65334,44.719998 495.4,45.12 C494.81333,45.3066676 494.18667,45.4 493.52,45.4 C492.399994,45.4 491.446671,45.0800032 490.66,44.44 C489.873329,43.7999968 489.413334,42.8666728 489.28,41.64 C489.226666,41.2933316 489.2,40.7600036 489.2,40.04 C489.2,38.6533264 489.359998,37.2400072 489.68,35.8 C490.000002,34.3599928 490.466664,32.5600108 491.08,30.4 L491.56,28.68 L490.04,28.84 C489.29333,28.8933336 488.280006,28.9999992 487,29.16 C486.386664,29.2400004 485.920002,29.1733344 485.6,28.96 C485.279998,28.7466656 485.12,28.4666684 485.12,28.12 C485.12,27.719998 485.313331,27.3266686 485.7,26.94 C486.086669,26.5533314 486.586664,26.3333336 487.2,26.28 L492.36,25.68 C493.533339,21.3599784 494.853326,17.1200208 496.32,12.96 C496.453334,12.5866648 496.819997,12.2600014 497.42,11.98 C498.020003,11.6999986 498.599997,11.56 499.16,11.56 C499.506668,11.56 499.793332,11.626666 500.02,11.76 C500.246668,11.893334 500.36,12.093332 500.36,12.36 C500.36,12.4400004 500.333334,12.5866656 500.28,12.8 C498.733326,17.1466884 497.440005,21.2933136 496.4,25.24 C498.266676,25.0533324 499.506664,24.96 500.12,24.96 C500.893337,24.96 501.28,25.1866644 501.28,25.64 C501.28,26.0133352 501.053336,26.4199978 500.6,26.86 C500.146664,27.3000022 499.680002,27.5733328 499.2,27.68 C497.599992,27.946668 496.400004,28.1333328 495.6,28.24 C495.146664,30.0533424 494.746668,31.826658 494.4,33.56 C494.346666,33.7733344 494.160002,34.5533266 493.84,35.9 C493.519998,37.2466734 493.36,38.5066608 493.36,39.68 C493.36,41.2000076 493.759996,42.026666 494.56,42.16 C495.066669,42.2400004 495.646663,41.9533366 496.3,41.3 C496.953337,40.6466634 497.799995,39.6666732 498.84,38.36 C499.480003,37.5333292 499.959998,36.9600016 500.28,36.64 Z M510.96,26.6 C510.96,27.6133384 511.219997,28.5066628 511.74,29.28 C512.260003,30.0533372 512.89333,30.706664 513.64,31.24 C514.38667,31.773336 515.399994,32.3999964 516.68,33.12 C518.413342,34.1066716 519.739995,34.999996 520.66,35.8 C521.580005,36.600004 522.186665,37.599994 522.48,38.8 C522.586667,39.333336 522.64,39.7199988 522.64,39.96 C522.64,41.826676 521.653343,43.1666626 519.68,43.98 C517.706657,44.7933374 515.466679,45.2 512.96,45.2 C511.973328,45.2 511.10667,45.133334 510.36,45 C509.479996,44.8399992 508.566671,44.526669 507.62,44.06 C506.673329,43.593331 505.88667,43.0200034 505.26,42.34 C504.63333,41.6599966 504.32,40.9600036 504.32,40.24 C504.32,39.1199944 505.186658,38.093338 506.92,37.16 C507.400002,36.9199988 507.866664,36.8 508.32,36.8 C508.746669,36.8 509.099999,36.8933324 509.38,37.08 C509.660001,37.2666676 509.8,37.493332 509.8,37.76 C509.8,38.2400024 509.413337,38.7066644 508.64,39.16 C508.479999,39.2400004 508.4,39.3599992 508.4,39.52 C508.4,39.8400016 508.653331,40.2266644 509.16,40.68 C509.666669,41.1333356 510.066665,41.4399992 510.36,41.6 C511.160004,42.0533356 512.439991,42.3333328 514.2,42.44 C514.413334,42.4666668 514.786664,42.48 515.32,42.48 C516.280005,42.48 517.05333,42.3200016 517.64,42 C518.22667,41.6799984 518.48,41.0933376 518.4,40.24 C518.293333,39.0933276 517.133344,37.8000072 514.92,36.36 L513.4,35.4 C512.013326,34.5466624 510.873338,33.7933366 509.98,33.14 C509.086662,32.4866634 508.320003,31.7000046 507.68,30.78 C507.039997,29.8599954 506.72,28.8266724 506.72,27.68 C506.72,26.9599964 506.853332,26.2400036 507.12,25.52 C507.70667,23.786658 508.799992,22.4466714 510.4,21.5 C512.000008,20.5533286 513.719991,20.08 515.56,20.08 C517.453343,20.08 519.04666,20.5599952 520.34,21.52 C521.63334,22.4800048 522.28,23.8399912 522.28,25.6 C522.28,26.1600028 522.200001,26.7599968 522.04,27.4 C521.933333,27.8800024 521.533337,28.2933316 520.84,28.64 C520.146663,28.9866684 519.493336,29.16 518.88,29.16 C518.506665,29.16 518.220001,29.0800008 518.02,28.92 C517.819999,28.7599992 517.773333,28.5333348 517.88,28.24 C518.040001,27.6799972 518.12,27.1200028 518.12,26.56 C518.12,25.6799956 517.893336,24.9333364 517.44,24.32 C516.986664,23.7066636 516.320004,23.2800012 515.44,23.04 C514.959998,22.9333328 514.600001,22.88 514.36,22.88 C513.399995,22.88 512.593337,23.2199966 511.94,23.9 C511.286663,24.5800034 510.96,25.4799944 510.96,26.6 Z" id="SoundEfectsforComponents" fill="#FF0072" fill-rule="nonzero"></path>
            <path d="M0,66 C168.681818,91.3125 330.727273,49.6328125 524,83.3125" id="Path" stroke="#FF0072" stroke-width="5" stroke-linecap="round" stroke-linejoin="round" transform="translate(262.000000, 74.656250) scale(-1, -1) translate(-262.000000, -74.656250) "></path>
        </g>
    </g>
</svg>